<svg xmlns="http://www.w3.org/2000/svg" width="80" height="80" viewBox="0 0 80 80">
  <metadata><?xpacket begin="﻿" id="W5M0MpCehiHzreSzNTczkc9d"?>
<x:xmpmeta xmlns:x="adobe:ns:meta/" x:xmptk="Adobe XMP Core 5.6-c138 79.159824, 2016/09/14-01:09:01        ">
   <rdf:RDF xmlns:rdf="http://www.w3.org/1999/02/22-rdf-syntax-ns#">
      <rdf:Description rdf:about=""/>
   </rdf:RDF>
</x:xmpmeta>
                                                                                                    
                                                                                                    
                                                                                                    
                                                                                                    
                                                                                                    
                                                                                                    
                                                                                                    
                                                                                                    
                                                                                                    
                                                                                                    
                                                                                                    
                                                                                                    
                                                                                                    
                                                                                                    
                                                                                                    
                                                                                                    
                                                                                                    
                                                                                                    
                                                                                                    
                                                                                                    
                           
<?xpacket end="w"?></metadata>
<defs>
    <style>
      .cls-1 {
        fill: #4397ec;
      }

      .cls-2 {
        fill: #fff;
        fill-rule: evenodd;
      }
    </style>
  </defs>
  <g id="type-serial">
    <circle id="background" class="cls-1" cx="40" cy="40" r="40"/>
    <path id="icon" class="cls-2" d="M121.464,28.464A3.461,3.461,0,1,1,118,25,3.461,3.461,0,0,1,121.464,28.464ZM118,36.539A3.461,3.461,0,1,0,121.464,40,3.461,3.461,0,0,0,118,36.539Zm0,11.536a3.461,3.461,0,1,0,3.461,3.461A3.461,3.461,0,0,0,118,48.075Zm6.922-17.016H150.3a1.154,1.154,0,0,0,1.154-1.154V27.022a1.154,1.154,0,0,0-1.154-1.154H124.925a1.154,1.154,0,0,0-1.154,1.154v2.884A1.154,1.154,0,0,0,124.925,31.06Zm0,11.536H150.3a1.154,1.154,0,0,0,1.154-1.154V38.558A1.154,1.154,0,0,0,150.3,37.4H124.925a1.154,1.154,0,0,0-1.154,1.154v2.884A1.154,1.154,0,0,0,124.925,42.6Zm0,11.536H150.3a1.154,1.154,0,0,0,1.154-1.154V50.094A1.154,1.154,0,0,0,150.3,48.94H124.925a1.154,1.154,0,0,0-1.154,1.154v2.884A1.154,1.154,0,0,0,124.925,54.132Z" transform="translate(-93)"/>
  </g>
</svg>
