<svg xmlns="http://www.w3.org/2000/svg" width="80" height="80" viewBox="0 0 80 80">
  <metadata><?xpacket begin="﻿" id="W5M0MpCehiHzreSzNTczkc9d"?>
<x:xmpmeta xmlns:x="adobe:ns:meta/" x:xmptk="Adobe XMP Core 5.6-c138 79.159824, 2016/09/14-01:09:01        ">
   <rdf:RDF xmlns:rdf="http://www.w3.org/1999/02/22-rdf-syntax-ns#">
      <rdf:Description rdf:about=""/>
   </rdf:RDF>
</x:xmpmeta>
                                                                                                    
                                                                                                    
                                                                                                    
                                                                                                    
                                                                                                    
                                                                                                    
                                                                                                    
                                                                                                    
                                                                                                    
                                                                                                    
                                                                                                    
                                                                                                    
                                                                                                    
                                                                                                    
                                                                                                    
                                                                                                    
                                                                                                    
                                                                                                    
                                                                                                    
                                                                                                    
                           
<?xpacket end="w"?></metadata>
<defs>
    <style>
      .cls-1 {
        fill: #4397ec;
      }

      .cls-2 {
        fill: #fff;
        fill-rule: evenodd;
      }
    </style>
  </defs>
  <g id="type-feed">
    <circle id="background" class="cls-1" cx="40" cy="40" r="40"/>
    <path id="icon" class="cls-2" d="M219.422,50.866a4.288,4.288,0,1,1-4.288-4.288,4.288,4.288,0,0,1,4.288,4.288h0Zm11.761,3.163A20.36,20.36,0,0,0,211.97,34.817a1.071,1.071,0,0,0-1.124,1.071v3.218a1.072,1.072,0,0,0,1,1.072,15,15,0,0,1,13.978,13.978,1.071,1.071,0,0,0,1.072,1h3.219a1.071,1.071,0,0,0,1.071-1.124h0Zm9.658,0.019a30.016,30.016,0,0,0-28.89-28.889,1.071,1.071,0,0,0-1.1,1.072v3.218a1.075,1.075,0,0,0,1.035,1.071,24.642,24.642,0,0,1,23.6,23.6,1.075,1.075,0,0,0,1.072,1.035h3.218A1.071,1.071,0,0,0,240.841,54.049Z" transform="translate(-186)"/>
  </g>
</svg>
