<svg xmlns="http://www.w3.org/2000/svg" width="80" height="80" viewBox="0 0 80 80">
  <metadata><?xpacket begin="﻿" id="W5M0MpCehiHzreSzNTczkc9d"?>
<x:xmpmeta xmlns:x="adobe:ns:meta/" x:xmptk="Adobe XMP Core 5.6-c138 79.159824, 2016/09/14-01:09:01        ">
   <rdf:RDF xmlns:rdf="http://www.w3.org/1999/02/22-rdf-syntax-ns#">
      <rdf:Description rdf:about=""/>
   </rdf:RDF>
</x:xmpmeta>
                                                                                                    
                                                                                                    
                                                                                                    
                                                                                                    
                                                                                                    
                                                                                                    
                                                                                                    
                                                                                                    
                                                                                                    
                                                                                                    
                                                                                                    
                                                                                                    
                                                                                                    
                                                                                                    
                                                                                                    
                                                                                                    
                                                                                                    
                                                                                                    
                                                                                                    
                                                                                                    
                           
<?xpacket end="w"?></metadata>
<defs>
    <style>
      .cls-1 {
        fill: #4397ec;
      }

      .cls-2 {
        fill: #fff;
        fill-rule: evenodd;
      }
    </style>
  </defs>
  <g id="type-single">
    <circle id="background" class="cls-1" cx="40" cy="40" r="40"/>
    <path id="icon" class="cls-2" d="M41.875,32.968V25H30.155A1.4,1.4,0,0,0,28.749,26.4V53.6A1.4,1.4,0,0,0,30.155,55h19.69A1.4,1.4,0,0,0,51.251,53.6V34.374h-7.97A1.411,1.411,0,0,1,41.875,32.968Zm3.75,13.83a0.705,0.705,0,0,1-.7.7H35.078a0.705,0.705,0,0,1-.7-0.7V46.329a0.705,0.705,0,0,1,.7-0.7h9.845a0.705,0.705,0,0,1,.7.7V46.8Zm0-3.75a0.705,0.705,0,0,1-.7.7H35.078a0.705,0.705,0,0,1-.7-0.7V42.578a0.705,0.705,0,0,1,.7-0.7h9.845a0.705,0.705,0,0,1,.7.7v0.469Zm0-4.219V39.3a0.705,0.705,0,0,1-.7.7H35.078a0.705,0.705,0,0,1-.7-0.7V38.828a0.705,0.705,0,0,1,.7-0.7h9.845A0.705,0.705,0,0,1,45.626,38.828Zm5.626-6.686V32.5h-7.5V25h0.358a1.405,1.405,0,0,1,1,.41l5.737,5.743A1.4,1.4,0,0,1,51.251,32.142Z"/>
  </g>
</svg>
