<svg width="100" height="100" viewBox="0 0 100 100" fill="none" xmlns="http://www.w3.org/2000/svg">
<path d="M20 4C18.896 4 18 4.894 18 6V60C18 61.106 18.896 62 20 62H28C29.104 62 30 61.106 30 60V6C30 4.894 29.104 4 28 4H20ZM38 18C36.896 18 36 18.894 36 20V94C36 95.106 36.896 96 38 96H46C47.104 96 48 95.106 48 94V20C48 18.894 47.104 18 46 18H38ZM56 18C54.896 18 54 18.894 54 20V94C54 95.106 54.896 96 56 96H64C65.104 96 66 95.106 66 94V20C66 18.894 65.104 18 64 18H56ZM74 18C72.896 18 72 18.894 72 20V60C72 61.106 72.896 62 74 62H82C83.104 62 84 61.106 84 60V20C84 18.894 83.104 18 82 18H74Z" fill="#3D8FFF"/>
</svg>
