<svg version="1.1" id="layer_1" xmlns="http://www.w3.org/2000/svg" xmlns:xlink="http://www.w3.org/1999/xlink" x="0px" y="0px" viewBox="0 0 1300 1300" style="enable-background:new 0 0 1300 1300;" xml:space="preserve">
<style type="text/css">
	.st0{fill:#b81904;}
	.st1{fill:#FFFFFF;}
	@keyframes spin {
    	0% { transform: rotate(0deg); }
    	100% {  transform: rotate(359deg); }
	}
	#wings {
    	animation: spin 5s linear infinite;
		
		-moz-transform-origin: 50.1% 43%;
		-ms-transform-origin: 50.1% 43%;
		-o-transform-origin: 50.1% 43%;
		-webkit-transform-origin: 50.1% 43%;
		
		transform-origin: 50.1% 43%;
	}
</style>
<path class="st0" d="M849.7,540.5L651.8,319.7L453.9,540.5L376.8,1212h550L849.7,540.5z M536.5,1000.9c-14.6,0-26.4-11.8-26.4-26.4
	c0-14.6,11.8-26.4,26.4-26.4s26.4,11.8,26.4,26.4C562.9,989.1,551.1,1000.9,536.5,1000.9z M654.9,1000.9
	c-14.6,0-26.4-11.8-26.4-26.4c0-14.6,11.8-26.4,26.4-26.4s26.4,11.8,26.4,26.4C681.3,989.1,669.5,1000.9,654.9,1000.9z
	 M773.3,1000.9c-14.6,0-26.4-11.8-26.4-26.4c0-14.6,11.8-26.4,26.4-26.4c14.6,0,26.4,11.8,26.4,26.4
	C799.7,989.1,787.9,1000.9,773.3,1000.9z"></path>
<g id="wings">
	<g>
		<g>
			<polygon class="st1" points="795.1,656.8 749.8,702.1 652.7,605 555.6,702 510.3,656.8 607.4,559.7 510.1,462.5 555.4,417.2 
				652.6,514.4 749.8,417.3 794.7,462.2 795,462.6 698,559.7 			"></polygon>
			<polygon class="st0" points="521.6,736 550.1,764.5 345,998.7 211.8,865.6 446,660.4 476.3,690.7 510.3,656.8 555.6,702 			"></polygon>
		</g>
		<g>
			<polygon class="st0" points="555.4,417.2 510.1,462.5 476.2,428.5 447.6,457 213.4,251.9 346.6,118.7 551.8,352.9 521.5,383.2 
							"></polygon>
			<path class="st0" d="M958.6,118.8L753.4,352.9l3.2,3.2l27.1,27.1L749.9,417l-0.1,0.1l45,45l0.3,0.3l0.1-0.1l33.6-33.6l0.2-0.2
				l28.4,28.4l0.1,0.1l0.1-0.1l233.6-204.6l0.5-0.5L958.6,118.8z M949.1,285.7c-14.1,0-25.6-11.7-25.5-25.8
				c0.1-13.9,11.4-25.2,25.3-25.3c14.1-0.1,25.7,11.4,25.8,25.5C974.7,274.1,963.2,285.7,949.1,285.7z"></path>
			<polygon class="st0" points="1091.8,867.4 958.6,1000.5 753.4,766.4 783.8,736 749.8,702.1 795.1,656.8 829.1,690.7 857.6,662.2 
							"></polygon>
		</g>
	</g>
	<!-- <circle class="st0" cx="651.8" cy="559.6" r="4"/> -->
</g>
<g>
	<g id="xp0lbj.tif">
		<g>
			<path class="st0" d="M94.4,919.6c-1.7,0.9-3.4,1.8-5.6,2.9c7.4,4.2,14.4,8,20.9,12.9c15.8,12,25.7,27.7,30.9,46.6
				c7.7,27.9,8.1,56.5,7.9,85.1c-0.1,18.5,0,37.1,1,55.6c0.4,7,1.7,13.9,4.5,20.4c3.7,8.6,10.2,14.2,19.4,16.3
				c9.9,2.3,19.9,3.1,30,2.8c0.6,0,1.2,0,1.7,0v49.2c-0.1,0-0.3,0-0.4,0c-15.9,0.1-32,0.6-47.6-2.8c-28.5-6.2-46.5-24-54.7-51.7
				c-3.5-11.7-4.3-23.9-5-36.1c-1.6-27.3-1.4-54.6-2.2-81.9c-0.5-17.9-0.8-36.1-6.7-53.5c-7.3-21.4-25.4-35.3-48.1-36.7
				c-2.1-0.1-4.2-0.7-6.2-1v-50.8c11.5,0.1,22.3-2.2,32.1-8.3c13.6-8.4,20.8-21,24.4-36.2c3.6-15.3,4.2-30.9,4.7-46.5
				c0.7-25,0.4-50.1,1.3-75.1c0.6-18.4,2.8-36.6,10.4-53.7c10.7-23.9,29.1-37.7,55-41.2c13.5-1.8,27.2-1.9,40.9-2
				c0.8,0,1.5,0,2.2,0.1v49.2c-0.6,0.1-1.2,0.1-1.9,0.1c-7.9,0-15.9,0.5-23.8,1.8c-18.1,2.8-26,11.1-28.9,30.3
				c-1.2,8.2-2,16.4-2,24.7c-0.1,26.7,0.1,53.3-1.1,80c-0.7,15.5-2.9,30.7-7.3,45.6C132.7,890.6,116.8,907.8,94.4,919.6z"></path>
		</g>
	</g>
	<g id="xp0lbj.tif_1_">
		<g>
			<path class="st0" d="M1202.6,919.6c1.7,0.9,3.4,1.8,5.6,2.9c-7.4,4.2-14.4,8-20.9,12.9c-15.8,12-25.7,27.7-30.9,46.6
				c-7.7,27.9-8.1,56.5-7.9,85.1c0.1,18.5,0,37.1-1,55.6c-0.4,7-1.7,13.9-4.5,20.4c-3.7,8.6-10.2,14.2-19.4,16.3
				c-9.9,2.3-19.9,3.1-30,2.8c-0.6,0-1.2,0-1.7,0v49.2c0.1,0,0.3,0,0.4,0c15.9,0.1,32,0.6,47.6-2.8c28.5-6.2,46.5-24,54.7-51.7
				c3.5-11.7,4.3-23.9,5-36.1c1.6-27.3,1.4-54.6,2.2-81.9c0.5-17.9,0.8-36.1,6.7-53.5c7.3-21.4,25.4-35.3,48.1-36.7
				c2.1-0.1,4.2-0.7,6.2-1v-50.8c-11.5,0.1-22.3-2.2-32.1-8.3c-13.6-8.4-20.8-21-24.4-36.2c-3.6-15.3-4.2-30.9-4.7-46.5
				c-0.7-25-0.4-50.1-1.3-75.1c-0.6-18.4-2.8-36.6-10.4-53.7c-10.7-23.9-29.1-37.7-55-41.2c-13.5-1.8-27.2-1.9-40.9-2
				c-0.8,0-1.5,0-2.2,0.1v49.2c0.6,0.1,1.2,0.1,1.9,0.1c7.9,0,15.9,0.5,23.8,1.8c18.1,2.8,26,11.1,28.9,30.3c1.2,8.2,2,16.4,2,24.7
				c0.1,26.7-0.1,53.3,1.1,80c0.7,15.5,2.9,30.7,7.3,45.6C1164.3,890.6,1180.2,907.8,1202.6,919.6z"></path>
		</g>
	</g>
</g>
</svg>