<svg width="300" height="51" viewBox="0 0 300 51" fill="none" xmlns="http://www.w3.org/2000/svg">
<path fill-rule="evenodd" clip-rule="evenodd" d="M82.7229 43.5477C81.2884 43.1677 79.7652 42.552 78.1514 41.7005V36.6844C79.3166 37.6575 80.7431 38.44 82.4315 39.0325C84.1192 39.6257 85.8895 39.9216 87.7425 39.9216C89.5652 39.9216 90.9392 39.5423 91.8654 38.7817C92.7915 38.0225 93.2549 36.9427 93.2549 35.5438C93.2549 34.6021 92.9856 33.8264 92.4477 33.2182C91.9104 32.6107 91.2381 32.1084 90.4315 31.7134C89.6243 31.3184 88.4893 30.8468 87.0252 30.2994L86.0393 29.9345C84.3959 29.357 83.0439 28.7645 81.9828 28.1563C80.9224 27.5481 80.0339 26.6816 79.3166 25.5567C78.5993 24.4318 78.2407 22.9878 78.2407 21.224C78.2407 19.7649 78.5993 18.3817 79.3166 17.0737C80.0339 15.7671 81.1541 14.6955 82.6786 13.8591C84.2018 13.0226 86.1138 12.605 88.4147 12.605C90.0877 12.605 91.4846 12.7643 92.6055 13.0834C93.7257 13.4025 95.0622 13.9431 96.6163 14.7024V19.6283C95.0924 18.6551 93.7774 17.9334 92.672 17.4619C91.5665 16.9904 90.2522 16.7546 88.7284 16.7546C86.9647 16.7546 85.6202 17.1195 84.6954 17.8494C83.7686 18.5786 83.3052 19.5367 83.3052 20.7224C83.3052 21.7256 83.5591 22.5395 84.0675 23.1621C84.5752 23.786 85.2394 24.2869 86.0621 24.6676C86.8828 25.0476 88.0709 25.4959 89.6243 26.0125C91.447 26.6207 92.9634 27.2515 94.1737 27.9048C95.3839 28.5595 96.3765 29.4554 97.1542 30.596C97.9313 31.7359 98.3194 33.1881 98.3194 34.9513C98.3194 36.6236 97.9534 38.1516 97.2214 39.5341C96.4887 40.918 95.3537 42.0278 93.8157 42.8636C92.2764 43.6994 90.3563 44.1176 88.0561 44.1176C85.9338 44.1176 84.1575 43.9277 82.7229 43.5477Z" fill="#3D8FFF"/>
<path fill-rule="evenodd" clip-rule="evenodd" d="M107.314 25.329C106.434 26.1743 105.861 27.6085 105.596 29.6303H116.296C116.091 27.6988 115.562 26.2876 114.711 25.3968C113.86 24.5074 112.612 24.0616 110.969 24.0616C109.413 24.0616 108.195 24.4843 107.314 25.329ZM118.652 23.5861C120.252 25.8656 121.037 29.057 121.008 33.1615H105.509C105.655 35.3956 106.294 37.0931 107.424 38.2546C108.554 39.4174 110.16 39.9982 112.246 39.9982C113.596 39.9982 114.888 39.8245 116.121 39.4771C117.354 39.1305 118.439 38.6854 119.379 38.142V42.5783C117.089 43.6041 114.462 44.1177 111.497 44.1177C108.18 44.1177 105.575 43.0844 103.681 41.0165C101.788 38.9493 100.841 36.0137 100.841 32.2111C100.841 28.3175 101.736 25.3371 103.527 23.2692C105.318 21.202 107.842 20.1681 111.101 20.1681C114.535 20.1681 117.052 21.3072 118.652 23.5861Z" fill="#3D8FFF"/>
<path fill-rule="evenodd" clip-rule="evenodd" d="M136.798 39.9898C137.55 39.7179 137.926 39.1734 137.926 38.3571V33.9574C136.452 33.2919 134.833 32.9589 133.07 32.9589C131.422 32.9589 130.171 33.262 129.318 33.8663C128.465 34.4712 128.04 35.3786 128.04 36.5878C128.04 37.8582 128.523 38.8105 129.492 39.4453C130.46 40.0802 131.61 40.3983 132.94 40.3983C134.761 40.3983 136.047 40.2617 136.798 39.9898ZM139.986 21.9598C141.648 23.1547 142.465 25.0824 142.436 27.7428V38.629C142.436 40.6858 141.569 42.1146 139.834 42.9153C138.099 43.716 135.627 44.1177 132.419 44.1177C129.845 44.1177 127.721 43.5576 126.044 42.4395C124.368 41.3207 123.529 39.4453 123.529 36.8149C123.529 34.3353 124.216 32.4756 125.589 31.2358C126.962 29.996 128.906 29.3761 131.422 29.3761C134.023 29.3761 136.191 29.9206 137.926 31.0088V28.8317C137.926 25.7471 136.148 24.2049 132.592 24.2049C131.32 24.2049 130.048 24.4088 128.777 24.8173C127.504 25.2251 126.449 25.7927 125.611 26.5179V22.0733C126.42 21.5289 127.598 21.0748 129.145 20.7125C130.691 20.3489 132.289 20.1681 133.937 20.1681C136.306 20.1681 138.323 20.7655 139.986 21.9598Z" fill="#3D8FFF"/>
<path fill-rule="evenodd" clip-rule="evenodd" d="M147.479 22.6892C148.353 22.1882 149.837 21.6427 151.93 21.0529C154.021 20.4637 156.098 20.1681 158.16 20.1681C159.408 20.1681 160.47 20.3603 161.345 20.7427V24.4582C160.47 24.3408 159.425 24.2812 158.206 24.2812C156.146 24.2812 154.208 24.429 152.398 24.7239V42.8572H147.479V22.6892Z" fill="#3D8FFF"/>
<path fill-rule="evenodd" clip-rule="evenodd" d="M163.187 41.3242C161.118 39.4625 160.084 36.4549 160.084 32.3034C160.084 28.0291 161.103 24.9385 163.143 23.0302C165.181 21.1226 167.77 20.1681 170.91 20.1681C173.286 20.1681 175.545 20.6258 177.687 21.5418V25.8463C175.457 24.8699 173.418 24.3813 171.57 24.3813C169.252 24.3813 167.521 24.9845 166.377 26.1901C165.233 27.3965 164.661 29.3116 164.661 31.937C164.661 34.6845 165.218 36.6923 166.333 37.9584C167.447 39.2258 169.238 39.8584 171.702 39.8584C173.697 39.8584 175.707 39.3548 177.731 38.3474V42.6519C175.619 43.6291 173.359 44.1177 170.954 44.1177C167.844 44.1177 165.255 43.1865 163.187 41.3242Z" fill="#3D8FFF"/>
<path fill-rule="evenodd" clip-rule="evenodd" d="M201.681 29.1312V42.8571H196.9V29.7053C196.9 27.9103 196.46 26.542 195.58 25.6002C194.7 24.6591 193.394 24.1882 191.664 24.1882C189.813 24.1882 188.023 24.6736 186.292 25.6445L186.247 42.8571H181.513V11.3445H186.292V22.0255C188.569 20.8192 190.814 20.216 193.03 20.216C198.796 20.216 201.681 23.1882 201.681 29.1312Z" fill="#3D8FFF"/>
<path fill-rule="evenodd" clip-rule="evenodd" d="M4.35279 43.5449C3.15027 43.1635 1.69934 42.5175 0 41.6075V38.1723C1.05492 39.0532 2.38066 39.7797 3.97919 40.3524C5.57574 40.9245 7.35744 41.2109 9.32167 41.2109C11.4612 41.2109 13.059 40.7563 14.114 39.8463C15.1695 38.9364 15.6973 37.7031 15.6973 36.1471C15.6973 35.0023 15.3896 34.0554 14.7735 33.3064C14.1581 32.5581 13.4254 31.9715 12.5754 31.5453C11.7247 31.1203 10.4497 30.5838 8.74973 29.9378C6.93178 29.3215 5.48876 28.7349 4.41868 28.1766C3.34861 27.6197 2.43271 26.7975 1.67035 25.7107C0.907326 24.6253 0.527132 23.1861 0.527132 21.3952C0.527132 20.1923 0.826938 19.0177 1.42919 17.8729C2.02946 16.7274 2.99609 15.7745 4.33105 15.0104C5.66403 14.2476 7.38644 13.8655 9.4976 13.8655C11.0507 13.8655 12.3184 14.0127 13.3009 14.3057C14.2826 14.6 15.58 15.1424 17.1924 15.9349V19.1939C16.9868 19.0765 16.4373 18.7611 15.5431 18.247C14.649 17.7336 13.7259 17.3595 12.7731 17.1239C11.8203 16.889 10.7871 16.7716 9.67287 16.7716C7.65066 16.7716 6.15558 17.1906 5.1883 18.0266C4.22101 18.8633 3.73671 19.9132 3.73671 21.1755C3.73671 22.3197 3.99302 23.2448 4.50632 23.9496C5.01961 24.6543 5.70818 25.2264 6.57333 25.6665C7.43783 26.1073 8.6621 26.5917 10.2448 27.1195C12.0621 27.7365 13.5493 28.3462 14.7083 28.9474C15.866 29.5498 16.855 30.4083 17.6761 31.5235C18.4964 32.6393 18.9076 34.0626 18.9076 35.7948C18.9076 38.1142 18.1379 40.0812 16.5987 41.6953C15.0595 43.3106 12.5899 44.1176 9.18989 44.1176C7.16702 44.1176 5.55399 43.9263 4.35279 43.5449Z" fill="#3D8FFF"/>
<mask id="mask0" mask-type="alpha" maskUnits="userSpaceOnUse" x="0" y="0" width="300" height="51">
<path d="M0 50.4202H300V0H0V50.4202Z" fill="#3D8FFF"/>
</mask>
<g mask="url(#mask0)">
<path fill-rule="evenodd" clip-rule="evenodd" d="M22.8786 44.1176H26.2819V21.4851H22.8786V44.1176ZM22.6895 17.4487H26.471V13.8655H22.6895V17.4487Z" fill="#3D8FFF"/>
<path fill-rule="evenodd" clip-rule="evenodd" d="M34.331 42.6192C33.3092 41.6202 32.799 40.1962 32.799 38.3464V24.387H28.9912V21.4343H32.799V15.126H35.9509V21.4343H41.5963V24.387H35.9509V37.3173C35.9509 38.63 36.1542 39.5847 36.5628 40.1807C36.9713 40.7774 37.7301 41.0758 38.8391 41.0758C39.9186 41.0758 40.8375 40.8968 41.5963 40.5388V43.5813C41.187 43.7308 40.6696 43.8568 40.0426 43.9614C39.415 44.0653 38.8241 44.1176 38.2699 44.1176C36.6651 44.1176 35.3521 43.6188 34.331 42.6192Z" fill="#3D8FFF"/>
<path fill-rule="evenodd" clip-rule="evenodd" d="M49.608 25.8478C48.5618 26.779 47.9008 28.4348 47.6242 30.816H60.7742C60.6207 28.6798 60.0136 27.0844 58.9523 26.031C57.8909 24.9777 56.3137 24.4507 54.2227 24.4507C52.1919 24.4507 50.6535 24.9166 49.608 25.8478ZM61.9283 24.8178C63.5587 27.0768 64.3428 30.0838 64.282 33.8388H47.4859C47.4859 36.5864 48.1318 38.6924 49.4234 40.1581C50.7157 41.6232 52.5612 42.3561 54.9605 42.3561C58.0361 42.3561 60.6664 41.7001 62.8507 40.3866V43.7759C60.6048 44.8443 57.9137 45.3782 54.7766 45.3782C51.4231 45.3782 48.808 44.3482 46.9321 42.2875C45.0555 40.2267 44.1172 37.2122 44.1172 33.2431C44.1172 29.3667 45.0009 26.4283 46.7703 24.428C48.539 22.4291 51.0227 21.4286 54.2227 21.4286C57.7291 21.4286 60.2971 22.5588 61.9283 24.8178Z" fill="#3D8FFF"/>
<path fill-rule="evenodd" clip-rule="evenodd" d="M286.086 11.7635C284.748 9.71654 283.017 8.08388 280.888 6.86686C278.761 5.65052 276.177 5.04201 273.139 5.04201C270.099 5.04201 267.505 5.65052 265.358 6.86686C263.379 7.98744 261.74 9.46661 260.433 11.2921L253.544 20.8735L253.361 21.1777C253.766 21.0161 254.252 20.8945 254.818 20.8123C255.384 20.7322 255.91 20.6908 256.395 20.6908C258.255 20.6908 260.046 21.0256 261.765 21.6952C263.484 22.3642 264.98 23.317 266.254 24.5537C266.436 24.7296 266.611 24.9123 266.782 25.0984C266.821 24.4777 266.871 23.8386 266.939 23.169C267.099 21.5478 267.414 20.0361 267.881 18.6371C268.345 17.238 269.005 16.0624 269.856 15.1089C270.706 14.1568 271.801 13.6793 273.139 13.6793C274.476 13.6793 275.559 14.1568 276.39 15.1089C277.22 16.0624 277.859 17.238 278.305 18.6371C278.75 20.0361 279.055 21.5478 279.217 23.169C279.378 24.7914 279.46 26.2713 279.46 27.6099C279.46 28.9885 279.378 30.4989 279.217 32.1411C279.055 33.7833 278.75 35.3045 278.305 36.7036C277.859 38.1026 277.22 39.2795 276.39 40.231C275.559 41.1852 274.476 41.6606 273.139 41.6606C271.801 41.6606 270.706 41.1852 269.856 40.231C269.787 40.1543 269.722 40.0735 269.655 39.9933C269.503 40.4436 269.332 40.885 269.137 41.3122C268.248 43.2586 267.034 44.9008 265.497 46.2394C264.958 46.708 264.385 47.1358 263.783 47.5277C264.282 47.9012 264.807 48.2476 265.358 48.5648C267.505 49.8015 270.099 50.4202 273.139 50.4202C276.177 50.4202 278.761 49.8015 280.888 48.5648C283.017 47.3287 284.748 45.6662 286.086 43.5771C287.423 41.4895 288.396 39.0663 289.004 36.3083C289.611 33.551 289.916 30.6511 289.916 27.6099C289.916 24.568 289.611 21.6782 289.004 18.9413C288.396 16.2044 287.423 13.8118 286.086 11.7635Z" fill="#3D8FFF"/>
<path fill-rule="evenodd" clip-rule="evenodd" d="M249.58 8.68189C249.58 8.68189 245.584 10.7717 242.193 8.28959C242.04 8.17779 241.892 8.05937 241.736 7.95021C240.33 6.96118 238.735 6.22884 236.95 5.75385C235.164 5.27951 233.327 5.04201 231.441 5.04201C229.674 5.04201 227.948 5.26959 226.263 5.72341C224.577 6.1779 223.021 6.84872 221.597 7.73785C220.172 8.62632 218.938 9.7331 217.894 11.0556C216.851 12.38 216.068 13.93 215.546 15.7076L224.938 17.8405C225.259 16.4181 225.952 15.2836 227.016 14.4335C228.079 13.5847 229.334 13.16 230.778 13.16C232.183 13.16 233.427 13.5576 234.511 14.3521C235.595 15.1466 236.137 16.2997 236.137 17.81C236.137 18.8434 235.926 19.6783 235.505 20.314C235.084 20.9504 234.521 21.4572 233.819 21.8343C233.116 22.2127 232.323 22.4707 231.441 22.6096C230.557 22.7486 229.634 22.818 228.672 22.818H225.722V30.0468H228.43C229.474 30.0468 230.518 30.1355 231.561 30.3134C232.604 30.4914 233.538 30.7878 234.36 31.2026C235.135 31.5929 235.762 32.1195 236.253 32.7731C236.395 30.8619 236.813 29.0929 237.517 27.4694C238.4 25.4358 239.542 23.3717 240.946 21.2773" fill="#3D8FFF"/>
<path fill-rule="evenodd" clip-rule="evenodd" d="M237.33 41.459C236.942 40.6181 236.646 39.7305 236.43 38.8023C236.402 38.8591 236.381 38.9213 236.351 38.9761C235.972 39.6629 235.494 40.2179 234.918 40.6417C234.341 41.0649 233.683 41.3779 232.947 41.58C232.21 41.7828 231.484 41.8822 230.767 41.8822C228.856 41.8822 227.284 41.3482 226.05 40.2781C224.815 39.2093 223.999 37.9681 223.601 36.5546L214.286 39.0369C214.843 41.0561 215.679 42.7813 216.794 44.2138C217.908 45.6469 219.212 46.8177 220.705 47.7256C222.199 48.6335 223.849 49.3095 225.662 49.7536C227.473 50.1978 229.334 50.4202 231.245 50.4202C233.195 50.4202 235.117 50.1477 237.008 49.6035C238.859 49.0709 240.528 48.2664 242.017 47.1916C241.634 46.9124 241.263 46.617 240.906 46.3026C239.397 44.9702 238.204 43.3566 237.33 41.459Z" fill="#3D8FFF"/>
<path fill-rule="evenodd" clip-rule="evenodd" d="M253.991 27.7311C250.163 27.7311 247.059 30.8349 247.059 34.6635C247.059 38.4928 250.163 41.5966 253.991 41.5966C257.82 41.5966 260.924 38.4928 260.924 34.6635C260.924 30.8349 257.82 27.7311 253.991 27.7311Z" fill="#3D8FFF"/>
<path fill-rule="evenodd" clip-rule="evenodd" d="M293.697 2.80948C291.771 2.80948 290.204 4.37604 290.204 6.30252C290.204 8.22833 291.771 9.79557 293.697 9.79557C295.624 9.79557 297.19 8.22833 297.19 6.30252C297.19 4.37604 295.624 2.80948 293.697 2.80948ZM293.697 12.605C290.221 12.605 287.395 9.77744 287.395 6.30252C287.395 2.82761 290.221 0 293.697 0C297.173 0 300 2.82761 300 6.30252C300 9.77744 297.173 12.605 293.697 12.605Z" fill="#3D8FFF"/>
</g>
</svg>
