<?xml version="1.0" encoding="UTF-8"?>
<svg width="424px" height="412px" viewBox="0 0 424 412" version="1.1" xmlns="http://www.w3.org/2000/svg" xmlns:xlink="http://www.w3.org/1999/xlink">
    <!-- Generator: sketchtool 50.2 (55047) - http://www.bohemiancoding.com/sketch -->
    <title>1D189D6E-8487-4347-AF08-53462EDFFA92</title>
    <desc>Created with sketchtool.</desc>
    <defs>
        <linearGradient x1="97.6025919%" y1="2.11529522%" x2="2.41934786%" y2="97.8086163%" id="linearGradient-1">
            <stop stop-color="#1967E6" offset="0%"></stop>
            <stop stop-color="#10FBFF" offset="100%"></stop>
        </linearGradient>
        <polygon id="path-2" points="0.405652217 0.866255927 15.2059736 0.866255927 15.2059736 7 0.405652217 7"></polygon>
        <polygon id="path-4" points="0.248 0.0537 15.611 0.0537 15.611 35.1767 0.248 35.1767"></polygon>
        <polygon id="path-6" points="0.273069927 0.168 25.2681661 0.168 25.2681661 27.8608 0.273069927 27.8608"></polygon>
        <polygon id="path-8" points="0.000243266172 0.0242713837 110.978028 0.0242713837 110.978028 72.8755824 0.000243266172 72.8755824"></polygon>
        <polygon id="path-10" points="0.000243266172 0.643280672 110.978028 0.643280672 110.978028 143.999516 0.000243266172 143.999516"></polygon>
    </defs>
    <g id="PRIMARY" stroke="none" stroke-width="1" fill="none" fill-rule="evenodd">
        <g id="HOMEPAGE" transform="translate(-863.000000, -212.000000)">
            <g id="HERO" transform="translate(-74.000000, -100.000000)">
                <g id="HERO-ILLUSTR" transform="translate(1149.000000, 518.500000) scale(-1, 1) translate(-1149.000000, -518.500000) translate(937.000000, 312.000000)">
                    <g id="Group-176" transform="translate(0.000000, 7.000000)">
                        <g id="Group-3" transform="translate(0.000000, 160.655488)" fill="#313648" fill-opacity="0.300000012">
                            <path d="M219.472561,242.677456 L420.553934,126.711551 C424.83533,124.241791 424.299685,119.928798 419.354691,117.076859 L220.678076,2.49807805 C215.734336,-0.353860976 208.254123,-0.663364024 203.972727,1.80639512 L2.89135385,117.772301 C-1.39129704,120.24206 -0.854397633,124.555054 4.09059645,127.406993 L202.767212,241.985773 C207.710951,244.837712 215.18991,245.147215 219.472561,242.677456" id="Fill-1"></path>
                        </g>
                        <path d="M0.00351242604,267.881337 L4.35641183,265.4617 L418.226826,265.4617 L423.445288,268.375039 L423.444033,275.157792 C423.470376,276.747911 422.519512,278.270365 420.553808,279.403121 L219.472436,395.369027 C215.191039,397.838786 207.710826,397.529283 202.767086,394.677344 L4.09047101,280.098563 C1.3708497,278.530999 -0.015304142,276.521109 0.0010035503,274.617728 C0.0122934911,273.061441 0.00351242604,267.881337 0.00351242604,267.881337" id="Fill-4" fill="#52C6FF"></path>
                        <path d="M0.00351242604,267.881337 L4.35641183,265.4617 L212.854021,265.4617 L212.854021,396.99799 C209.384246,397.110764 205.64853,396.340139 202.767086,394.677344 L4.09047101,280.098563 C1.3708497,278.530999 -0.015304142,276.521109 0.0010035503,274.617728 C0.0122934911,273.061441 0.00351242604,267.881337 0.00351242604,267.881337" id="Fill-6" fill="#359AFF"></path>
                        <path d="M219.472561,388.532643 L420.553934,272.566737 C424.83533,270.096978 424.299685,265.783984 419.354691,262.932045 L220.678076,148.353265 C215.734336,145.501326 208.254123,145.191823 203.972727,147.661582 L2.89135385,263.627487 C-1.39129704,266.097247 -0.854397633,270.410241 4.09059645,273.26218 L202.767212,387.84096 C207.710951,390.692899 215.18991,391.002402 219.472561,388.532643" id="Fill-8" fill="#F8F9FB"></path>
                        <path d="M184.265633,341.779513 C190.874012,345.590035 199.016568,345.590035 205.624947,341.779513 L208.392237,340.184382 C209.558864,339.510242 210.306509,338.481489 210.655243,337.348733 C211.298769,339.44383 210.551124,341.898553 208.392237,343.14283 L205.624947,344.737962 C199.016568,348.549736 190.874012,348.549736 184.265633,344.737962 L174.01813,338.828584 L176.583456,337.348733 L184.265633,341.779513 Z" id="Fill-10" fill="#8BA4CD"></path>
                        <path d="M208.392738,340.183756 L205.625449,341.778887 C199.015815,345.589408 190.874514,345.589408 184.266135,341.778887 L176.583957,337.348106 L188.704336,330.3586 L194.433354,327.054311 C196.139389,327.65828 199.972951,328.141957 206.119697,332.196823 C208.725164,333.917259 210.307011,336.216603 210.65449,337.348106 C210.307011,338.482116 209.559366,339.510869 208.392738,340.183756" id="Fill-12" fill="#D3E1F4"></path>
                        <path d="M194.433479,327.054937 L188.704462,330.359227 C184.988817,327.90701 180.111562,326.909584 177.132272,326.257998 C182.387112,325.205437 189.335444,325.254306 194.433479,327.054937" id="Fill-14" fill="#AEC1DF"></path>
                        <polygon id="Fill-16" fill="#231F20" points="176.583456 337.348482 176.583456 337.348482 174.01813 338.828333"></polygon>
                        <path d="M167.836135,331.314551 C168.14849,332.107731 168.721768,332.814451 169.557224,333.296874 L176.58333,337.347981 L176.58333,340.307682 L169.557224,336.255323 C167.72449,335.199002 167.151212,333.053783 167.836135,331.314551" id="Fill-18" fill="#A9BEDD"></path>
                        <path d="M167.836135,331.314551 C168.14849,330.521371 168.721768,329.814652 169.557224,329.332228 C172.412324,327.685722 173.99417,326.88753 177.132774,326.258499 C180.112064,326.908832 184.989318,327.906259 188.704963,330.358475 L176.58333,337.347981 L169.557224,333.296874 C168.721768,332.814451 168.14849,332.107731 167.836135,331.314551" id="Fill-20" fill="#C0D2ED"></path>
                        <path d="M255.949983,257.622001 L255.949983,254.934211 L209.671262,281.693068 L181.894244,265.404687 C179.081794,263.754421 177.353179,260.738333 177.353179,257.480406 L177.353179,222.927586 L174.933368,224.33476 L174.933368,259.096839 C174.933368,262.379827 176.685818,265.413458 179.533392,267.053699 L209.671262,284.434738 L255.949983,257.622001 Z" id="Fill-22" fill="#8BA4CD"></path>
                        <path d="M255.949983,254.934837 L227.112966,238.334447 C223.478859,236.243109 221.239688,232.371188 221.240942,228.182246 L221.250978,197.621639 L177.353179,222.926959 L177.353179,257.47978 C177.353179,260.738959 179.081794,263.753795 181.894244,265.40406 L209.671262,281.692441 L255.949983,254.934837 Z" id="Fill-24" fill="#D3E0F3"></path>
                        <polygon id="Fill-26" fill="#A9BEDD" points="221.246462 210.909219 221.246462 220.761942 177.352426 245.72518 177.352426 236.196997"></polygon>
                        <polygon id="Fill-28" fill="#BDCEE7" points="255.949983 254.934837 255.949983 257.622627 209.671262 284.435365 209.671262 281.692441"></polygon>
                        <polygon id="Fill-30" fill="#D3E0F3" points="299.92631 249.116305 193.600156 310.435501 232.26444 332.733504 338.901695 271.23387"></polygon>
                        <polygon id="Fill-32" fill="#FFFFFF" points="289.889553 285.293077 258.143493 303.544985 263.637931 306.713946 295.42915 288.436976"></polygon>
                        <polygon id="Fill-34" fill="#8BA4CD" points="263.638308 307.23371 263.638308 306.713695 258.14387 303.545988 258.14387 304.066003"></polygon>
                        <polygon id="Fill-36" fill="#BDCEE7" points="295.42915 288.436726 295.42915 289.008116 263.637931 307.23371 263.637931 306.713695"></polygon>
                        <polygon id="Fill-38" fill="#8BA4CD" points="232.26444 334.263602 232.26444 332.733629 193.600156 310.434373 193.600156 311.965598"></polygon>
                        <polygon id="Fill-40" fill="#BDCEE7" points="338.902071 271.234245 338.902071 273.125096 232.264817 334.263852 232.264817 332.73388"></polygon>
                        <polygon id="Fill-42" fill="#FFFFFF" points="323.157872 266.21967 308.046914 274.933371 313.542606 278.102331 328.69747 269.362316"></polygon>
                        <polygon id="Fill-44" fill="#8BA4CD" points="313.542606 278.622848 313.542606 278.102832 308.046914 274.933872 308.046914 275.453887"></polygon>
                        <polygon id="Fill-46" fill="#BDCEE7" points="328.69747 269.362065 328.69747 269.933455 313.542606 278.623349 313.542606 278.103334"></polygon>
                        <polygon id="Fill-48" fill="#FFFFFF" points="306.524402 275.755747 291.412189 284.470701 296.907882 287.639661 312.062746 278.899646"></polygon>
                        <polygon id="Fill-50" fill="#8BA4CD" points="296.907756 288.160178 296.907756 287.640162 291.412064 284.471202 291.412064 284.991217"></polygon>
                        <polygon id="Fill-52" fill="#BDCEE7" points="312.062746 278.899395 312.062746 279.470786 296.907882 288.160679 296.907882 287.640664"></polygon>
                        <polygon id="Fill-54" fill="#FFFFFF" points="256.619979 304.367862 241.50902 313.081564 247.003458 316.250524 262.159576 307.510509"></polygon>
                        <polygon id="Fill-56" fill="#8BA4CD" points="247.003458 316.771041 247.003458 316.251025 241.50902 313.082065 241.50902 313.60208"></polygon>
                        <polygon id="Fill-58" fill="#BDCEE7" points="262.159576 307.510258 262.159576 308.081648 247.003458 316.771542 247.003458 316.251527"></polygon>
                        <polygon id="Fill-60" fill="#FFFFFF" points="239.985254 313.904065 224.874296 322.619019 230.368734 325.78798 245.524852 317.047964"></polygon>
                        <polygon id="Fill-62" fill="#8BA4CD" points="230.369361 326.308496 230.369361 325.788481 224.874923 322.61952 224.874923 323.139536"></polygon>
                        <polygon id="Fill-64" fill="#BDCEE7" points="245.524852 317.047588 245.524852 317.618979 230.368734 326.308872 230.368734 325.788857"></polygon>
                        <polygon id="Fill-66" fill="#FFFFFF" points="315.581067 262.24149 300.468854 270.956445 305.964547 274.125405 321.119411 265.38539"></polygon>
                        <polygon id="Fill-68" fill="#8BA4CD" points="305.964547 274.645921 305.964547 274.125906 300.468854 270.956946 300.468854 271.476961"></polygon>
                        <polygon id="Fill-70" fill="#BDCEE7" points="321.119411 265.385139 321.119411 265.956529 305.964547 274.646423 305.964547 274.126407"></polygon>
                        <polygon id="Fill-72" fill="#FFFFFF" points="298.946218 271.77882 283.835259 280.493775 289.329697 283.661482 304.485815 274.92272"></polygon>
                        <polygon id="Fill-74" fill="#8BA4CD" points="289.329697 284.181998 289.329697 283.661983 283.835259 280.494276 283.835259 281.014291"></polygon>
                        <polygon id="Fill-76" fill="#BDCEE7" points="304.485941 274.922469 304.485941 275.492606 289.329822 284.1825 289.329822 283.662484"></polygon>
                        <polygon id="Fill-78" fill="#FFFFFF" points="282.311493 281.314898 267.200535 290.029852 272.694973 293.198812 287.851091 284.458797"></polygon>
                        <polygon id="Fill-80" fill="#8BA4CD" points="272.694973 293.719454 272.694973 293.199439 267.200535 290.030478 267.200535 290.550494"></polygon>
                        <polygon id="Fill-82" fill="#BDCEE7" points="287.851091 284.458546 287.851091 285.029937 272.694973 293.71983 272.694973 293.199815"></polygon>
                        <polygon id="Fill-84" fill="#FFFFFF" points="265.676769 290.852353 250.565811 299.567307 256.061503 302.736268 271.216367 293.996252"></polygon>
                        <polygon id="Fill-86" fill="#8BA4CD" points="256.061378 303.256784 256.061378 302.736769 250.565685 299.567809 250.565685 300.087824"></polygon>
                        <polygon id="Fill-88" fill="#BDCEE7" points="271.216367 293.996002 271.216367 294.567392 256.061503 303.257285 256.061503 302.73727"></polygon>
                        <polygon id="Fill-90" fill="#FFFFFF" points="249.04192 300.389683 233.930961 309.104637 239.426653 312.273598 254.581517 303.533583"></polygon>
                        <polygon id="Fill-92" fill="#8BA4CD" points="239.426653 312.794114 239.426653 312.274099 233.930961 309.105139 233.930961 309.625154"></polygon>
                        <polygon id="Fill-94" fill="#BDCEE7" points="254.581517 303.533332 254.581517 304.104722 239.426653 312.794616 239.426653 312.2746"></polygon>
                        <polygon id="Fill-96" fill="#FFFFFF" points="232.407822 309.927013 217.296864 318.641968 222.791302 321.809675 237.94742 313.070913"></polygon>
                        <polygon id="Fill-98" fill="#8BA4CD" points="222.791804 322.330317 222.791804 321.810302 217.297366 318.642594 217.297366 319.162609"></polygon>
                        <polygon id="Fill-100" fill="#BDCEE7" points="237.946793 313.070662 237.946793 313.640799 222.791929 322.330693 222.791929 321.810677"></polygon>
                        <polygon id="Fill-102" fill="#FFFFFF" points="308.003008 258.263311 292.89205 266.978265 298.386488 270.147226 313.542606 261.40721"></polygon>
                        <polygon id="Fill-104" fill="#8BA4CD" points="298.386488 270.667742 298.386488 270.147727 292.89205 266.978766 292.89205 267.498782"></polygon>
                        <polygon id="Fill-106" fill="#BDCEE7" points="313.542606 261.406834 313.542606 261.978225 298.386488 270.668118 298.386488 270.148103"></polygon>
                        <polygon id="Fill-108" fill="#FFFFFF" points="291.368159 267.800641 276.2572 276.515595 281.751638 279.684556 296.907756 270.944541"></polygon>
                        <polygon id="Fill-110" fill="#8BA4CD" points="281.751638 280.205072 281.751638 279.685057 276.2572 276.516097 276.2572 277.036112"></polygon>
                        <polygon id="Fill-112" fill="#BDCEE7" points="296.907756 270.94429 296.907756 271.51568 281.751638 280.205573 281.751638 279.685558"></polygon>
                        <polygon id="Fill-114" fill="#FFFFFF" points="274.733434 277.337971 259.622476 286.052926 265.118168 289.220633 280.273032 280.481871"></polygon>
                        <polygon id="Fill-116" fill="#8BA4CD" points="265.118043 289.741275 265.118043 289.221259 259.62235 286.053552 259.62235 286.573567"></polygon>
                        <polygon id="Fill-118" fill="#BDCEE7" points="280.273032 280.48162 280.273032 281.05301 265.118168 289.741651 265.118168 289.221635"></polygon>
                        <polygon id="Fill-120" fill="#FFFFFF" points="258.099839 286.875302 242.987626 295.589003 248.483318 298.757963 263.638182 290.017948"></polygon>
                        <polygon id="Fill-122" fill="#8BA4CD" points="248.483318 299.278605 248.483318 298.75859 242.987626 295.589629 242.987626 296.110898"></polygon>
                        <polygon id="Fill-124" fill="#BDCEE7" points="263.638308 290.017823 263.638308 290.589213 248.483444 299.279106 248.483444 298.759091"></polygon>
                        <polygon id="Fill-126" fill="#FFFFFF" points="241.465115 296.411504 226.354156 305.126458 231.848594 308.295419 247.003458 299.555403"></polygon>
                        <polygon id="Fill-128" fill="#8BA4CD" points="231.848594 308.815935 231.848594 308.29592 226.354156 305.126959 226.354156 305.646975"></polygon>
                        <polygon id="Fill-130" fill="#BDCEE7" points="247.003458 299.555153 247.003458 300.126543 231.848594 308.816436 231.848594 308.296421"></polygon>
                        <polygon id="Fill-132" fill="#FFFFFF" points="224.830265 305.948834 209.719307 314.663788 215.213744 317.832749 230.369863 309.092734"></polygon>
                        <polygon id="Fill-134" fill="#8BA4CD" points="215.213744 318.353265 215.213744 317.83325 209.719307 314.66429 209.719307 315.184305"></polygon>
                        <polygon id="Fill-136" fill="#BDCEE7" points="230.369361 309.092483 230.369361 309.663873 215.213243 318.353766 215.213243 317.833751"></polygon>
                        <polygon id="Fill-138" fill="#FFFFFF" points="300.424949 254.286259 285.313991 263.001214 290.809683 266.168921 305.964547 257.430159"></polygon>
                        <polygon id="Fill-140" fill="#8BA4CD" points="290.809557 266.689563 290.809557 266.169548 285.313865 263.00184 285.313865 263.521855"></polygon>
                        <polygon id="Fill-142" fill="#BDCEE7" points="305.964547 257.429908 305.964547 258.001298 290.809683 266.689939 290.809683 266.169923"></polygon>
                        <polygon id="Fill-144" fill="#FFFFFF" points="283.790099 263.823715 268.679141 272.537416 274.174833 275.706377 289.329697 266.966361"></polygon>
                        <polygon id="Fill-146" fill="#8BA4CD" points="274.174833 276.226893 274.174833 275.706878 268.679141 272.537917 268.679141 273.057933"></polygon>
                        <polygon id="Fill-148" fill="#BDCEE7" points="289.329697 266.966111 289.329697 267.537501 274.174833 276.227394 274.174833 275.707379"></polygon>
                        <polygon id="Fill-150" fill="#FFFFFF" points="267.156504 273.359792 252.044291 282.074746 257.539983 285.243707 272.694847 276.503691"></polygon>
                        <polygon id="Fill-152" fill="#8BA4CD" points="257.539983 285.764223 257.539983 285.244208 252.044291 282.075248 252.044291 282.595263"></polygon>
                        <polygon id="Fill-154" fill="#BDCEE7" points="272.694973 276.503441 272.694973 277.074831 257.540109 285.764724 257.540109 285.244709"></polygon>
                        <polygon id="Fill-156" fill="#FFFFFF" points="250.52178 282.897122 235.410821 291.612077 240.905259 294.781037 256.061378 286.041022"></polygon>
                        <polygon id="Fill-158" fill="#8BA4CD" points="240.905259 295.301679 240.905259 294.781663 235.410821 291.612703 235.410821 292.132718"></polygon>
                        <polygon id="Fill-160" fill="#BDCEE7" points="256.061378 286.040771 256.061378 286.612161 240.905259 295.302055 240.905259 294.782039"></polygon>
                        <polygon id="Fill-162" fill="#FFFFFF" points="233.887056 292.434578 218.776097 301.149532 224.270535 304.317239 239.426653 295.578477"></polygon>
                        <polygon id="Fill-164" fill="#8BA4CD" points="224.271037 304.837756 224.271037 304.317741 218.776599 301.150033 218.776599 301.670048"></polygon>
                        <polygon id="Fill-166" fill="#BDCEE7" points="239.426653 295.578227 239.426653 296.149617 224.270535 304.838257 224.270535 304.318242"></polygon>
                        <polygon id="Fill-168" fill="#FFFFFF" points="217.252206 301.971908 202.141247 310.685609 207.635685 313.85457 222.791804 305.114554"></polygon>
                        <polygon id="Fill-170" fill="#8BA4CD" points="207.636312 314.375086 207.636312 313.855071 202.141875 310.68611 202.141875 311.206126"></polygon>
                        <polygon id="Fill-172" fill="#BDCEE7" points="222.791804 305.114304 222.791804 305.685694 207.635685 314.375587 207.635685 313.855572"></polygon>
                        <polygon id="Fill-174" fill="#D3E0F3" points="83.1223148 131.521812 311.081273 0.0907789634 311.081273 160.259233 83.1223148 291.689014"></polygon>
                    </g>
                    <polygon id="Fill-177" fill="url(#linearGradient-1)" points="83.3282198 138.571141 83.3282198 272.180197 310.981209 140.69962 310.981209 7.0918169"></polygon>
                    <g id="Group-194" transform="translate(72.000000, 0.000000)">
                        <polygon id="Fill-180" fill="#8BA4CD" points="11.6388691 299.474937 0.0409633508 292.888745 0.0409633508 132.338536 11.6388691 139.028912"></polygon>
                        <polygon id="Fill-182" fill="#E4F0F5" points="239.980901 7.36857741 228.382995 0.679456067 0.0399581152 132.339289 11.6391204 139.02841"></polygon>
                    </g>
                    <g id="Group" transform="translate(259.000000, 146.000000)">
                        <path d="M56.9893,175.3261 C56.9893,175.3261 57.7673,179.2011 57.0723,180.9671 C56.3773,182.7321 46.6653,179.3781 45.4223,178.4621 C44.1793,177.5461 52.5413,175.3261 52.5413,175.3261 L56.9893,175.3261 Z" id="Fill-1" fill="#6D4420"></path>
                        <g id="Group-5" transform="translate(21.000000, 181.832000)">
                            <mask id="mask-3" fill="white">
                                <use xlink:href="#path-2"></use>
                            </mask>
                            <g id="Clip-4"></g>
                            <path d="M14.9238,0.8672 C14.9238,0.8672 16.2028,7.0002 13.3148,7.0002 C6.1948,7.0002 0.5268,4.8102 0.4088,3.4322 C0.1818,0.7402 12.3078,0.8672 12.3078,0.8672 L14.9238,0.8672 Z" id="Fill-3" fill="#6D4420" mask="url(#mask-3)"></path>
                        </g>
                        <path d="M56.6025,90.7519 C56.6025,90.7519 59.1625,98.7139 59.2555,104.8619 C59.3495,111.0109 57.8165,130.1089 57.9295,135.2119 C58.0415,140.3139 58.0765,177.0919 58.0765,177.0919 C58.0765,177.0919 52.2275,178.3509 49.6015,176.3069 L46.7905,146.7239 L42.9985,116.8849 C42.9985,116.8849 37.5345,143.3409 37.2725,150.5359 C37.0105,157.7309 36.6435,182.9599 36.5125,183.6139 C36.3815,184.2689 27.5215,183.5929 27.5215,183.5929 C27.5215,183.5929 24.7135,155.1139 24.9755,146.3499 C25.2375,137.5849 25.5985,90.7519 25.5985,90.7519 L56.6025,90.7519 Z" id="Fill-6" fill="#908B9A"></path>
                        <path d="M57.3965,93.5175 C57.3965,93.5175 52.1355,96.9185 40.5275,96.4455 C28.9385,95.9735 25.3885,94.5725 25.3885,94.5725 L25.5665,97.0895 C25.5665,97.0895 33.3765,100.5535 44.4935,100.0005 C54.9495,99.4815 58.0075,95.9915 58.0075,95.9915 L57.3965,93.5175 Z" id="Fill-8" fill="#011C53"></path>
                        <polygon id="Fill-10" fill="#011C53" points="41.6982 103.9169 32.1692 103.2749 32.1692 104.4089 41.6982 105.0009"></polygon>
                        <g id="Group-14" transform="translate(55.000000, 40.832000)">
                            <mask id="mask-5" fill="white">
                                <use xlink:href="#path-4"></use>
                            </mask>
                            <g id="Clip-13"></g>
                            <path d="M0.248,0.0537 C0.248,0.0537 16.091,22.8877 15.601,27.5967 C15.109,32.3067 0.608,35.1767 0.608,35.1767 L0.248,0.0537 Z" id="Fill-12" fill="#131723" mask="url(#mask-5)"></path>
                        </g>
                        <path d="M10.3584,95.999 C10.3584,95.999 4.2754,103.655 0.7434,102.245 C-2.7886,100.836 7.4154,92.27 7.4154,92.27 L10.3584,95.999 Z" id="Fill-15" fill="#FEC197"></path>
                        <path d="M44.9434,33.3046 C44.8454,32.5196 43.6684,27.7116 43.6684,24.8666 C43.6684,22.0216 41.8034,12.3076 37.8304,9.8556 C33.8564,7.4026 27.9694,6.1756 27.7244,7.9416 C27.4794,9.7076 24.9244,28.9256 28.2734,29.3066 C35.0464,30.0796 34.2904,36.6056 34.2904,36.6056 L44.9434,33.3046 Z" id="Fill-17" fill="#FEC197"></path>
                        <path d="M46.2988,32.8886 C46.2988,32.8886 47.2918,35.0136 47.9458,35.2746 C48.6008,35.5366 53.0698,36.5746 55.6868,41.6766 C58.3038,46.7786 60.2658,57.2436 58.6948,69.0176 C57.8398,75.4366 56.9948,81.3146 57.2568,84.0616 C57.4458,86.0496 59.5868,90.2446 58.5878,92.5756 C58.2738,93.3096 57.3968,93.5176 57.3968,93.5176 C57.3968,93.5176 50.9358,97.3076 43.6098,97.1986 C33.6378,97.0476 25.5668,94.7926 25.5668,94.7926 C25.5668,94.7926 23.7838,94.9306 23.4898,94.0536 C21.6048,88.4326 22.6498,67.6766 22.0848,60.3986 C20.9068,45.2236 32.1398,38.1446 32.1398,38.1446 L30.8138,36.5066 L46.2988,32.8886 Z" id="Fill-19" fill="#313648"></path>
                        <path d="M28.0186,43.704 C32.7746,43.704 35.9656,51.259 34.9856,62.934 C34.0036,74.61 30.5696,81.086 30.5696,81.086 C30.5696,81.086 11.8306,96.392 10.0646,97.471 C8.2976,98.55 5.8446,93.252 5.8446,93.252 C5.8446,93.252 19.0246,76.11 20.4976,73.727 C21.9706,71.345 20.6546,60.989 21.7146,54.555 C22.7026,48.569 23.9966,43.704 28.0186,43.704" id="Fill-21" fill="#131723"></path>
                        <g id="Group-25" transform="translate(23.000000, 0.832000)">
                            <mask id="mask-7" fill="white">
                                <use xlink:href="#path-6"></use>
                            </mask>
                            <g id="Clip-24"></g>
                            <path d="M21.3057,27.8608 C21.3057,27.8608 23.6597,22.3178 24.5927,16.7248 C25.5247,11.1328 26.5057,8.3858 20.0307,5.1478 C13.5547,1.9098 3.7437,-2.1612 1.0447,1.8118 C-1.6533,5.7858 3.4977,8.6308 4.6757,11.0348 C5.8527,13.4388 6.5397,20.4538 6.5397,20.4538 L7.8647,20.6988 C7.8647,20.6988 8.8457,15.0568 10.2677,15.5968 C11.6907,16.1358 10.7587,25.0158 10.7587,26.2908 C10.7587,27.5668 21.3057,27.8608 21.3057,27.8608" id="Fill-23" fill="#4A2F16" mask="url(#mask-7)"></path>
                        </g>
                    </g>
                    <g id="Group" transform="translate(142.000000, 64.000000)">
                        <g id="Group-3">
                            <mask id="mask-9" fill="white">
                                <use xlink:href="#path-8"></use>
                            </mask>
                            <g id="Clip-2"></g>
                            <path d="M0.000243266172,72.8755824 L110.978271,9.12425833 L110.978271,1.91222473 C110.978271,0.460852945 109.401906,-0.4453458 108.140571,0.279128597 L2.2759983,61.0925757 C0.867487169,61.9018548 0.000243266172,63.3980519 0.000243266172,65.0166101 L0.000243266172,72.8755824 Z" id="Fill-1" fill="#CEDBE6" mask="url(#mask-9)"></path>
                        </g>
                        <path d="M96.0000075,13.8992938 C95.9974135,12.9126063 96.6679678,11.710837 97.4954604,11.2148048 L97.4954604,11.2134605 C98.3242501,10.7174282 98.9986955,11.1153295 98.9999925,12.102017 C99.0025865,13.0887045 98.3346262,14.2904737 97.5045395,14.786506 C96.6770469,15.2825383 96.0038985,14.8846371 96.0000075,13.8992938" id="Fill-4" fill="#F8F9FB"></path>
                        <path d="M100.000008,10.8992938 C99.9974135,9.9126063 100.666671,8.71083705 101.49546,8.21480477 L101.49546,8.21346051 C102.32425,7.71742824 102.998695,8.11532947 102.999992,9.10201697 C103.002587,10.0887045 102.333329,11.291818 101.50454,11.786506 C100.677047,12.2825383 100.003899,11.8846371 100.000008,10.8992938" id="Fill-6" fill="#F8F9FB"></path>
                        <path d="M105.000008,7.89893864 C104.997413,6.91236062 105.666671,5.71072472 106.494163,5.21474749 L106.494163,5.21340337 C107.32425,4.71742614 107.998695,5.11528322 107.999992,6.10320535 C108.002587,7.08843926 107.333329,8.29141927 106.50454,8.7873965 C105.67575,9.28202963 105.002602,8.88417255 105.000008,7.89893864" id="Fill-8" fill="#F8F9FB"></path>
                        <g id="Group-12" transform="translate(0.000000, 9.000000)">
                            <mask id="mask-11" fill="white">
                                <use xlink:href="#path-10"></use>
                            </mask>
                            <g id="Clip-11"></g>
                            <polygon id="Fill-10" fill="#FFFFFF" mask="url(#mask-11)" points="0.000243266172 143.999516 110.978271 80.3224739 110.978271 0.643280672 0.000243266172 64.3203227"></polygon>
                        </g>
                    </g>
                    <g id="Group-2" transform="translate(196.000000, 138.500000) scale(-1, 1) translate(-196.000000, -138.500000) translate(154.000000, 98.000000)">
                        <path d="M4.61286729,1.77993055 C2.23333547,0.401847011 0.5,1.13133749 0.5,3.39408138 L0.5,5.01523072 C0.5,7.51437399 2.57607671,10.7927911 5.1140288,12.2626222 L65.9071294,47.4703765 C68.2866612,48.84846 70.0199966,48.1189695 70.0199966,45.8562257 L70.0199966,44.2350763 C70.0199966,41.735933 67.9439199,38.457516 65.4059678,36.9876848 L4.61286729,1.77993055 Z" id="Rectangle-8" stroke="#359AFF"></path>
                        <path d="M76.6107285,47.6614826 C76.6107285,48.5983625 77.3857716,49.8096021 78.3385316,50.3613841 C79.2915515,50.9133167 80.0665947,50.599795 80.0665947,49.6629151 C80.0665947,48.7260351 79.2915515,47.515051 78.3385316,46.9631185 M83.5507813,55.7370023 L82.3220923,56.2331174 L79.8010586,52.2935589 C79.7838389,52.2666666 79.7674931,52.2397468 79.7520211,52.2128536 C79.3275218,52.1802006 78.8470639,52.0222536 78.3385316,51.7277419 C76.6195623,50.7322169 75.2212109,48.5473304 75.2212109,46.8567565 C75.2212109,45.1664381 76.6195623,44.6009803 78.3385316,45.5965053 C80.0577608,46.5921807 81.4561122,48.7773227 81.4561122,50.4676411 C81.4561122,51.039353 81.2961923,51.4823638 81.0180238,51.7798304" id="Combined-Shape" fill="#359AFF"></path>
                        <polygon id="Rectangle-9" fill="#E4F0F5" points="5.9609375 19.5728388 20.2867285 27.8694864 20.2867285 42.1952774 5.9609375 33.8986299"></polygon>
                        <polygon id="Rectangle-10" fill="#E4F0F5" points="24.5001965 31.995064 63.2641016 54.4448163 63.2641016 56.972897 24.5001965 34.5231448"></polygon>
                        <polygon id="Rectangle-10" fill="#E4F0F5" points="24.5001965 36.208532 63.2641016 58.6582842 63.2641016 61.186365 24.5001965 38.7366128"></polygon>
                        <polygon id="Rectangle-10" fill="#E4F0F5" points="24.5001965 39.5793063 46.4102298 52.2682967 46.4102298 54.7963775 24.5001965 42.1073871"></polygon>
                        <polygon id="Rectangle-9" fill="#E4F0F5" points="5.9609375 38.9547914 20.2867285 47.251439 20.2867285 61.57723 5.9609375 53.2805824"></polygon>
                        <polygon id="Rectangle-10" fill="#E4F0F5" points="24.5001965 51.3770166 63.2641016 73.8267688 63.2641016 76.3548496 24.5001965 53.9050974"></polygon>
                        <polygon id="Rectangle-10" fill="#E4F0F5" points="24.5001965 55.5904845 63.2641016 78.0402368 63.2641016 80.5683175 24.5001965 58.1185653"></polygon>
                        <polygon id="Rectangle-10" fill="#E4F0F5" points="24.5001965 59.8039525 46.4102298 72.4929429 46.4102298 75.0210236 24.5001965 62.3320333"></polygon>
                    </g>
                </g>
            </g>
        </g>
    </g>
</svg>