<?xml version="1.0" encoding="UTF-8"?> <svg xmlns="http://www.w3.org/2000/svg" width="200" height="40.295" viewBox="0 0 200 40.295"><g id="Logo" transform="translate(2107.579 -1437.224)"><g id="Group_19" data-name="Group 19" transform="translate(-2107.579 1437.224)"><g id="LoginPress-logo-divid-logo"><path id="Path_40" data-name="Path 40" d="M38.949,70.2H20.9v9.25H38.949l6.822-4.639Z" transform="translate(-14.643 -49.185)" fill="#29c3ff"></path><path id="Path_41" data-name="Path 41" d="M0,60.2v6.706a5.545,5.545,0,0,0,5.538,5.538H9.25V60.2Z" transform="translate(0 -42.178)" fill="#28296a"></path><path id="Path_42" data-name="Path 42" d="M73.42,97.6l-4.52,4.52,6.556,6.556,8.652-8.652-2.485-1.976Z" transform="translate(-48.274 -68.382)" fill="#f6366a"></path><rect id="Rectangle_277" data-name="Rectangle 277" width="9.25" height="21.015" fill="#f6366a"></rect><path id="Path_43" data-name="Path 43" d="M85.864,83.176,80.5,88.542l10.712.061Z" transform="translate(-56.401 -58.276)" fill="#28296a"></path><path id="Path_44" data-name="Path 44" d="M84.078,45.422,75.456,36.8,68.9,43.326l3.922,3.922,8.8.21Z" transform="translate(-48.274 -25.783)" fill="#29c3ff"></path><path id="Path_45" data-name="Path 45" d="M117.8,98.322h0l3.922-3.922-2.006,2.006Z" transform="translate(-82.535 -66.14)" fill="#29c3ff"></path><path id="Path_46" data-name="Path 46" d="M89.75,70.2H80.5l4.61,4.64Z" transform="translate(-56.401 -49.185)" fill="#0795ff"></path><path id="Path_47" data-name="Path 47" d="M109.1,98.9l2.6,2.575,2.485-2.455Z" transform="translate(-76.439 -69.293)" fill="#28296a"></path><path id="Path_48" data-name="Path 48" d="M114.229,66.255,111.775,63.8,109.2,66.375Z" transform="translate(-76.509 -44.7)" fill="#28296a"></path><path id="Path_49" data-name="Path 49" d="M106.378,72.206,104.372,70.2H100.54L95.9,74.84l4.64,4.64h3.832l2.006-2.006A3.7,3.7,0,0,0,106.378,72.206Z" transform="translate(-67.191 -49.185)" fill="#061f6a"></path></g></g><g id="Group_26" data-name="Group 26" transform="translate(-2054.036 1442.533)"><path id="Path_2" data-name="Path 2" d="M344.2,452.231h4.464v16.175a.677.677,0,0,0,.677.677h8.725v3.843H347.251a3.051,3.051,0,0,1-3.051-3.051Z" transform="translate(-344.2 -451.551)" fill="#8c8f94"></path><path id="Path_3" data-name="Path 3" d="M394.069,478.484a7.866,7.866,0,1,1,7.864,7.686A7.518,7.518,0,0,1,394.069,478.484Zm11.589,0c0-2.484-1.508-4.169-3.725-4.169s-3.725,1.685-3.725,4.169c0,2.454,1.508,4.139,3.725,4.139S405.658,480.938,405.658,478.484Z" transform="translate(-379.14 -464.559)" fill="#8c8f94"></path><path id="Path_4" data-name="Path 4" d="M467.557,471.033v15.788c0,3.1-2.247,5.144-5.617,5.144H454.43v-3.222h6.859a2.189,2.189,0,0,0,2.158-2.365v-1.951a4.959,4.959,0,0,1-4.08,1.744c-4.405,0-7.037-3.045-7.037-7.686s2.631-7.687,6.977-7.687a5.185,5.185,0,0,1,4.109,1.715v-1.478Zm-3.873,7.451c0-2.513-1.449-4.169-3.666-4.169-2.188,0-3.636,1.655-3.636,4.169s1.449,4.139,3.636,4.139C462.235,482.623,463.684,481,463.684,478.484Z" transform="translate(-419.96 -464.559)" fill="#8c8f94"></path><g id="Group_3" data-name="Group 3" transform="translate(50.729 0)"><rect id="Rectangle_4" data-name="Rectangle 4" width="4.376" height="4.346" rx="2.173" fill="#8c8f94"></rect><rect id="Rectangle_5" data-name="Rectangle 5" width="4.139" height="14.901" transform="translate(0.118 6.475)" fill="#8c8f94"></rect></g><path id="Path_5" data-name="Path 5" d="M596.9,452.231h8.514c4.405,0,6.977,2.72,6.977,6.534,0,3.784-2.572,6.534-6.977,6.534h-4.05v7.628H596.9Zm8.248,9.372a2.84,2.84,0,1,0,0-5.676h-3.784V461.6Z" transform="translate(-521.252 -451.551)" fill="#8c8f94"></path><path id="Path_6" data-name="Path 6" d="M706.029,480.878c-.591,3.223-3.43,5.292-7.1,5.292a7.471,7.471,0,0,1-7.657-7.716c0-3.784,2.306-7.657,7.362-7.657,5.262,0,7.361,3.873,7.361,7.273,0,.562-.03,1-.059,1.33h-10.7a3.575,3.575,0,0,0,3.7,3.4c1.656,0,2.75-.651,3.075-1.922ZM695.3,476.8h6.593a3.082,3.082,0,0,0-3.252-2.986C696.775,473.813,695.651,474.729,695.3,476.8Z" transform="translate(-587.373 -464.559)" fill="#8c8f94"></path><path id="Path_7" data-name="Path 7" d="M746.761,480.908h3.548a2.461,2.461,0,0,0,2.72,2.158c1.271,0,2.158-.621,2.158-1.449,0-3.045-8.012-.059-8.012-6.327,0-2.631,2.276-4.494,5.322-4.494,3.577,0,6,1.922,6.15,4.849h-3.577a2.366,2.366,0,0,0-2.454-1.951c-1.153,0-1.951.5-1.951,1.449,0,3.045,8.16-.414,8.16,6.327,0,2.838-2.306,4.7-5.795,4.7C749.392,486.171,746.909,484.131,746.761,480.908Z" transform="translate(-626.248 -464.559)" fill="#8c8f94"></path><path id="Path_8" data-name="Path 8" d="M793.131,480.908h3.548a2.461,2.461,0,0,0,2.72,2.158c1.271,0,2.158-.621,2.158-1.449,0-3.045-8.012-.059-8.012-6.327,0-2.631,2.276-4.494,5.322-4.494,3.577,0,6,1.922,6.15,4.849h-3.577a2.366,2.366,0,0,0-2.454-1.951c-1.153,0-1.951.5-1.951,1.449,0,3.045,8.159-.414,8.159,6.327,0,2.838-2.306,4.7-5.794,4.7C795.762,486.171,793.279,484.131,793.131,480.908Z" transform="translate(-658.736 -464.559)" fill="#8c8f94"></path><path id="Path_9" data-name="Path 9" d="M552.715,476.647v9.283h-4.139v-8.467a2.854,2.854,0,1,0-5.707,0v8.467H538.73v-9.283c0-3.43,2.185-5.854,5.558-5.854h2.87C550.53,470.793,552.715,473.217,552.715,476.647Z" transform="translate(-480.494 -464.556)" fill="#8c8f94"></path><path id="Path_10" data-name="Path 10" d="M663.225,471.587H660.73a5.369,5.369,0,0,0-5.369,5.369v9.532H659.5v-7.243c0-2.542.917-4.228,2.957-4.228h2.454v-3.43Z" transform="translate(-562.21 -465.112)" fill="#8c8f94"></path></g></g></svg> 