<?xml version="1.0" encoding="UTF-8"?>
<svg width="27px" height="31px" viewBox="0 0 27 31" version="1.1" xmlns="http://www.w3.org/2000/svg" xmlns:xlink="http://www.w3.org/1999/xlink">
    <!-- Generator: sketchtool 51.2 (57519) - http://www.bohemiancoding.com/sketch -->
    <title>14CD5C72-A096-4629-AAE7-71423980236E</title>
    <desc>Created with sketchtool.</desc>
    <defs></defs>
    <g id="PRICING" stroke="none" stroke-width="1" fill="none" fill-rule="evenodd">
        <g transform="translate(-840.000000, -860.000000)" fill="#3D8FFF" id="MATRIX-SECTION">
            <g transform="translate(200.000000, 707.000000)">
                <g id="MATRIX" transform="translate(0.000000, 138.000000)">
                    <g id="Group" transform="translate(640.000000, 15.000000)">
                        <path d="M1.24268933,4.04677002 C1.06661926,4.04677002 0.902523991,4.13384098 0.803884162,4.27987258 C0.687992511,4.45117303 0.682816965,4.67625856 0.790793074,4.853039 C3.05149212,8.5579185 3.63267556,12.8096808 2.47142498,17.1486155 C1.67094044,20.139574 2.89551535,23.2504834 5.51850266,24.8898124 L13.1497954,29.6591293 C13.2999877,29.7529995 13.4997029,29.7529995 13.6498952,29.6591293 L21.2811879,24.8898124 C23.9041752,23.2504834 25.1286487,20.139574 24.3281641,17.1486155 C23.1669136,12.8095793 23.748097,8.55781702 26.008999,4.85283603 C26.1166707,4.67625856 26.1113936,4.45127451 25.995299,4.2797711 C25.8964562,4.13394247 25.7324624,4.04677002 25.5564939,4.04677002 C25.5270643,4.04677002 25.4973303,4.04930706 25.4682051,4.05427964 C24.2051688,4.26708594 23.1054159,4.37049539 22.1057235,4.37059687 C18.9066269,4.37069835 16.3987194,3.31448092 13.7193084,0.838742991 C13.6320345,0.757963872 13.5186799,0.71351506 13.4000483,0.71351506 C13.2811122,0.71351506 13.1673516,0.758166834 13.0796718,0.839351879 C10.4009712,3.31437944 7.89306373,4.37049539 4.69396705,4.37059687 C3.69478212,4.37059687 2.59472476,4.26708594 1.33107955,4.05417816 C1.30185293,4.04920558 1.27211891,4.04677002 1.24268933,4.04677002 M13.3998453,30.4443917 C13.1773983,30.4443917 12.9601268,30.3820822 12.7715745,30.2642624 L5.14038331,25.4949454 C3.73151835,24.6144936 2.66494983,23.3308566 2.05596051,21.7830637 C1.44717416,20.2358797 1.3524921,18.5695567 1.78216395,16.9641225 C2.89176054,12.8184082 2.3382815,8.75895297 0.181702278,5.22476502 C-0.0713920985,4.8101124 -0.0592143418,4.28230813 0.212857039,3.88003624 C0.444437378,3.53763831 0.829457451,3.33325496 1.24268933,3.33325496 C1.3117981,3.33325496 1.38141427,3.3390394 1.44971119,3.35060827 C2.67367722,3.55681828 3.73496871,3.65708181 4.69396705,3.65708181 C7.69740777,3.65698033 10.0604,2.65759243 12.5953015,0.315200935 C12.815313,0.112035361 13.1011858,0 13.4000483,0 C13.6986063,0 13.9840732,0.111730917 14.2036787,0.314592047 C16.7390877,2.65759243 19.1022828,3.65718329 22.1057235,3.65708181 C23.0651278,3.65698033 24.1262163,3.55681828 25.349675,3.35060827 C25.4178704,3.33914088 25.4873851,3.33325496 25.5564939,3.33325496 C25.9694213,3.33325496 26.3543399,3.53753683 26.5861232,3.87973179 C26.858499,4.28200369 26.8710827,4.80990944 26.6181913,5.22435909 C24.4614091,8.75875001 23.90793,12.8183067 25.0174252,16.9642239 C25.447097,18.5695567 25.352415,20.2358797 24.7436286,21.7830637 C24.1345378,23.3308566 23.0680708,24.6144936 21.6593073,25.4949454 L14.0279131,30.2642624 C13.8394623,30.3820822 13.6221908,30.4443917 13.3998453,30.4443917" id="Fill-1"></path>
                        <path d="M19.0864517,13.52828 L16.9453992,15.6153446 C16.6791122,15.8749337 16.5577406,16.2487909 16.6205575,16.6151384 L17.1261374,19.5621555 C17.1506958,19.7054471 17.0917352,19.8501595 16.9742198,19.9357082 C16.8565015,20.0211555 16.7006262,20.0323184 16.5720494,19.9647318 L13.925417,18.5733217 C13.5962116,18.4003975 13.203073,18.4003975 12.8740707,18.5733217 L10.2275397,19.9647318 C10.0988614,20.0323184 9.94288462,20.0211555 9.82536927,19.9357082 C9.70775244,19.8501595 9.6487918,19.7054471 9.67345175,19.5621555 L10.1788287,16.6151384 C10.2417471,16.2487909 10.1201725,15.8749337 9.85388552,15.6153446 L7.71283293,13.52828 C7.60881459,13.4267987 7.57126651,13.2749827 7.61622273,13.1367652 C7.66117895,12.9984461 7.78072392,12.8977767 7.92452293,12.8768715 L10.8834134,12.4468952 C11.2512831,12.3934146 11.569427,12.1623417 11.7339282,11.8288741 L13.0181741,9.22689342 C13.0898199,9.08157219 13.2377797,8.98963012 13.3996423,8.98963012 C13.561708,8.98963012 13.7095662,9.08157219 13.781212,9.22689342 L15.065458,11.8288741 C15.2299592,12.1623417 15.5480016,12.3934146 15.9159728,12.4468952 L18.8748632,12.8768715 C19.0186622,12.8977767 19.1382072,12.9984461 19.1830619,13.1367652 C19.2281196,13.2749827 19.1905716,13.4267987 19.0864517,13.52828 M23.2472867,5.99765679 C22.8542497,6.02292564 22.4745066,6.03550932 22.1056221,6.03550932 C19.0554999,6.03550932 16.4454008,5.15333233 13.9010615,3.22051938 C13.6045331,2.99533236 13.195259,2.99492644 12.8988321,3.22001198 C10.3545943,5.15302788 7.74439362,6.03540784 4.69396705,6.03550932 C4.32518399,6.0356108 3.94533946,6.02292564 3.55220088,5.99765679 C5.07218788,9.56350691 5.32051263,13.4727698 4.25810484,17.442211 C3.66920883,19.6426302 4.56965245,21.9310336 6.49871059,23.1366315 L12.9606342,27.1751816 C13.2291537,27.3430317 13.5702324,27.3430317 13.8388534,27.1751816 L20.3008785,23.1366315 C22.2298352,21.9310336 23.1302788,19.6426302 22.5413828,17.442211 C21.478975,13.4726683 21.7272998,9.56340543 23.2472867,5.99765679" id="Fill-4"></path>
                    </g>
                </g>
            </g>
        </g>
    </g>
</svg>