<?xml version="1.0" encoding="UTF-8"?>
<svg width="28px" height="31px" viewBox="0 0 28 31" version="1.1" xmlns="http://www.w3.org/2000/svg" xmlns:xlink="http://www.w3.org/1999/xlink">
    <!-- Generator: sketchtool 51.2 (57519) - http://www.bohemiancoding.com/sketch -->
    <title>604CC0B1-9E11-4BE4-AAB3-188E18950367</title>
    <desc>Created with sketchtool.</desc>
    <defs></defs>
    <g id="PRICING" stroke="none" stroke-width="1" fill="none" fill-rule="evenodd">
        <g transform="translate(-1048.000000, -861.000000)" fill="#3D8FFF" id="MATRIX-SECTION">
            <g transform="translate(200.000000, 707.000000)">
                <g id="MATRIX" transform="translate(0.000000, 138.000000)">
                    <g id="Group" transform="translate(848.000000, 16.000000)">
                        <path d="M4.22447322,18.7938176 L7.65015523,20.0070922 L7.82149075,18.1005277 C7.82149075,18.1005277 5.9373485,16.8873225 6.53685143,14.8507445 C7.13635435,12.8142359 8.50662715,12.4675562 9.23454601,13.2474987 C9.23454601,13.2474987 10.5191853,10.8210188 11.4184397,10.1276596 L6.23709997,11.4275867 C6.23709997,11.4275867 5.2522121,15.3707292 3.28243638,16.1506717 C3.28243638,16.1506717 3.8819393,17.4505988 4.22447322,18.7938176" id="Fill-1"></path>
                        <path d="M4.54929174,18.8924222 C4.30324767,18.811664 4.03436096,18.9156625 3.89958266,19.1412783 L0.666109404,24.5531772 C0.418189691,24.9681429 0.680444669,25.5069196 1.15364241,25.5517548 C3.3677711,25.7613286 9.06496744,26.5729558 17.7769238,29.6907174 C18.0869406,29.80164 18.3755886,29.4731912 18.2312311,29.1712733 C17.2818882,27.1861837 13.9877915,21.9898229 4.54929174,18.8924222" id="Fill-3"></path>
                        <g id="Group-7" transform="translate(0.000000, 11.443262)">
                            <path d="M18.109307,17.7721785 C9.10336596,14.6509251 3.19525139,13.8590745 1.06720556,13.6634022 C0.953441244,13.6528734 0.901405237,13.5728132 0.884220295,13.5388338 C0.866829133,13.5044441 0.833077905,13.4137184 0.893500164,13.3153353 C0.893500164,13.3153353 4.21163764,7.91814381 4.21163764,7.91828054 C4.24683241,7.86091889 4.31804681,7.83377637 4.38101244,7.85394525 C7.60772602,8.88296818 10.7920272,10.3576207 13.4736344,12.4393907 C15.3330452,13.8829353 17.0373103,15.6618986 18.109307,17.7721785 M20.5177424,6.72783823 C20.0021941,3.73641776 18.8309372,0.473503696 18.781307,0.336081858 C18.7012939,0.114087474 18.4558242,-0.00104604683 18.2322137,0.0784671863 C18.0092219,0.158117158 17.8931205,0.402604967 17.9731336,0.62459935 C17.9842694,0.655365434 19.0120664,3.51907247 19.5590975,6.26812457 C19.5698897,6.32247799 19.5278209,6.3730711 19.472073,6.3730711 L18.334361,6.3730711 C18.0972776,6.3730711 17.9050124,6.56423103 17.9050124,6.80010434 L17.9050124,11.303712 C17.9050124,11.5822476 17.771726,11.7635624 17.6600239,11.8666629 C17.4738766,12.0382693 17.2100534,12.1259868 16.9305574,12.1038353 C16.0925509,12.040799 15.181199,11.8392469 14.3187899,11.5380812 C13.5555722,11.2716469 12.8331172,10.9030692 12.1518373,10.4693358 C10.1980468,9.22529213 7.73633813,8.02719248 4.64297971,7.04062674 C4.20077676,6.89951297 3.722073,7.07727256 3.47907791,7.47265092 L3.47907791,7.47278766 L0.160871686,12.8699791 C-0.0367551555,13.1915189 -0.0532527005,13.5847094 0.116672013,13.9218373 C0.286253028,14.2579397 0.611942062,14.4792504 0.988086088,14.5137768 C3.09386023,14.7074663 8.96155581,15.4953515 17.9439879,18.619408 C18.0319748,18.6499006 18.1223676,18.6648051 18.2119355,18.6648051 C18.4388455,18.6648051 18.6592252,18.5693619 18.8161581,18.3935166 C19.033857,18.1495757 19.0815624,17.8028762 18.9374838,17.5106667 C18.4191172,16.4570309 17.2932285,14.6209795 15.0747211,12.6581717 C15.6764691,12.8091306 16.2826164,12.9116842 16.8658046,12.9555088 C16.9144036,12.9592007 16.9628651,12.9610467 17.0111892,12.9610467 C17.4742203,12.9608416 17.9171106,12.7942262 18.2438308,12.4927869 C18.5790746,12.1837587 18.7637097,11.7613746 18.7637097,11.303712 L18.7637097,7.31519694 C18.7637097,7.26651816 18.8033725,7.22713757 18.8523152,7.22713757 L20.0870877,7.22713757 C20.1543152,7.22713757 20.2217489,7.2146944 20.2818962,7.18488549 C20.4608946,7.09614243 20.549019,6.9087428 20.5177424,6.72783823" id="Fill-5"></path>
                        </g>
                        <path d="M7.35243036,19.9822695 C7.32457945,19.9822695 7.29620181,19.9793266 7.26775833,19.9732402 C7.04547777,19.9259535 6.90299698,19.7045688 6.94954685,19.4788366 L7.24609651,18.0393008 C6.52901785,17.7088959 5.99879708,17.006083 5.79508379,16.0903796 C5.54119937,14.9484089 5.86276875,13.7647029 6.59525429,13.144625 C7.55884314,12.3287789 8.49109149,12.4049593 9.09913679,12.6720255 C9.42761952,11.6862281 9.82628918,10.5312152 10.0560098,9.96464416 C10.1423937,9.75128547 10.3827807,9.64922109 10.5927489,9.73737368 C10.8027829,9.82519185 10.9029277,10.0693839 10.8164121,10.2826757 C10.5560752,10.9250258 10.0284223,12.5991224 9.72100879,13.4484773 C9.69585737,13.5179024 9.64101149,13.6079946 9.56753249,13.64973 C9.4051676,13.7420294 9.2712462,13.7166136 9.10664271,13.613546 C9.01986375,13.5591696 8.09709656,12.94471 7.12185379,13.7863732 C6.632323,14.2088769 6.41274194,15.0758222 6.59736122,15.9063159 C6.67808277,16.2694938 6.94487211,17.0691542 7.82405229,17.363442 C8.03303288,17.4334023 8.16978547,17.6349226 8.12461827,17.853632 L7.75452377,19.649858 C7.71396547,19.8468302 7.54297537,19.9820689 7.35243036,19.9822695" id="Fill-8"></path>
                        <path d="M4.14282744,19.4359127 C3.92587533,19.4433309 3.73177139,19.2897191 3.69514402,19.0709536 C3.43826036,17.5374252 2.92400091,16.6844775 2.91893916,16.6759396 C2.7929579,16.4702608 2.85763578,16.2013877 3.06383167,16.075419 C3.27016817,15.9493804 3.5395656,16.0127846 3.66660139,16.2176236 C3.69134771,16.2572338 4.27358924,17.2096268 4.5613355,18.9271393 C4.60119676,19.1653601 4.43957236,19.390564 4.20047511,19.4301742 C4.18107175,19.4333934 4.16187929,19.4352829 4.14282744,19.4359127" id="Fill-10"></path>
                        <path d="M27.9563699,22.5321043 C27.9266417,22.3186653 27.739049,22.1594647 27.5172583,22.1594647 L24.8806019,22.1594647 C24.6358232,22.1594647 24.4374461,22.3521594 24.4374461,22.5899265 C24.4374461,23.5525731 24.1962149,23.9831728 23.9936517,24.1749716 C23.8581366,24.303228 23.6973631,24.3676663 23.5136727,24.3618083 C23.1652356,24.3534003 22.6724146,23.8114291 22.3154634,23.0440961 C21.2801561,20.8177002 19.7351416,20.1662183 18.6212213,20.0117042 C18.3777197,19.9770384 18.36729,20.1416146 18.3328082,20.3769006 C18.327274,20.4146677 18.3269193,20.4521591 18.3312473,20.4885478 C18.3061308,20.6937856 18.2238285,20.8925451 18.4349767,20.9520903 C20.5617839,21.5519525 20.994581,22.591236 21.4954904,23.7946131 C21.7736866,24.4631866 22.0615322,25.1543653 22.6345271,25.826109 C23.2241244,26.5172876 23.9339825,26.858156 24.7923397,26.858156 C24.9941934,26.858156 25.2044902,26.8391347 25.4231591,26.8016433 C27.840579,26.385861 28.1372933,23.8269357 27.9563699,22.5321043" id="Fill-12"></path>
                        <path d="M18.5083082,8.31312017 C17.0855512,3.53573911 12.2697576,0.724580965 7.75193365,2.03412335 C7.72049338,2.04323461 7.6901396,2.05435571 7.65890305,2.06380194 C7.61367795,2.05917931 7.56845286,2.0544897 7.52268452,2.05174292 C7.47623712,2.08376631 7.43148737,2.1171296 7.38700924,2.15062687 C3.10060735,3.61425671 0.763773741,8.4086544 2.1476888,13.0555301 C2.1476888,13.0555301 1.60817923,15.1219769 0.570921986,17.1276596 C0.570921986,17.1276596 5.38732667,16.8484263 6.4660742,11.8137192 C6.4660742,11.8137192 6.47809348,11.8513031 6.4660742,11.8137192 L13.0822475,9.88896588 C13.0870009,9.9083943 13.0822475,9.88896588 13.0822475,9.88896588 C18.849262,14.309735 22.8368794,10.8932141 22.8368794,10.8932141 C22.8368794,10.8932141 20.3981875,9.51513632 18.5083082,8.31312017" id="Fill-14"></path>
                        <path d="M7.11729667,2.28368794 C7.03372471,2.28368794 6.95115436,2.25348377 6.88273177,2.19575084 L5.87567402,1.34630239 C5.70452365,1.20189967 5.65419267,0.927668283 5.77739089,0.730953904 C5.90503375,0.527198925 6.15612523,0.48340639 6.33197065,0.631892655 L6.78300883,1.0122963 C6.86144753,1.07847795 6.97437923,1.04214845 7.00981123,0.93935568 L7.23141778,0.29676007 C7.30879226,0.0722353194 7.530211,-0.0563260461 7.73197312,0.0240776118 C7.94080912,0.107227104 8.04585312,0.367166075 7.96635021,0.597675336 L7.48188325,2.0029792 C7.43756194,2.13125894 7.34253405,2.22891207 7.2248447,2.2667201 C7.18947529,2.27812587 7.15329208,2.28368794 7.11729667,2.28368794" id="Fill-16"></path>
                        <path d="M13.7101031,9.77759971 L17.5694475,8.663772 C17.8894157,8.5714418 18.2342756,8.61796937 18.5167386,8.79215117 C19.675441,9.50686991 20.9231091,10.2302879 21.6311454,10.6358553 C20.5017628,11.2766967 17.5865563,12.3809685 13.7101031,9.77759971 M1.10037542,16.2188335 C1.56607044,15.1118597 1.98882572,13.954536 2.21050218,13.3310271 C2.26887341,13.1667308 2.404402,13.0403287 2.57434948,12.9912968 L5.77738657,12.0669404 C4.83143726,15.0406185 2.33710736,15.9483015 1.10037542,16.2188335 M5.7296161,3.13569104 C5.07330883,4.35377741 4.83754276,5.93307847 5.0453309,7.80571408 C5.19863923,9.18770137 5.55181869,10.3976158 5.77752076,11.0685749 C5.80107053,11.1387616 5.7608816,11.2136934 5.68875624,11.2345188 L2.46022367,12.1662563 C2.35636315,12.1962422 2.24700097,12.1346229 2.2234512,12.0308255 C1.41470782,8.47146685 2.88700455,4.90993338 5.7296161,3.13569104 M6.58639833,10.8443726 C6.08910233,9.3668918 4.82929028,4.8179327 7.23660009,2.50328523 C7.34146702,2.40238763 7.49403732,2.36159363 7.6357385,2.39902658 C10.5241748,3.16165685 11.8812052,7.70092821 12.2563912,9.20971299 C12.2732317,9.27739544 12.2327073,9.34593463 12.1646746,9.36557374 L6.74990485,10.9282672 C6.68126834,10.9480382 6.6088746,10.9110665 6.58639833,10.8443726 M9.73871283,1.98990034 C13.091301,1.98990034 16.2703187,4.19969604 17.5450255,7.60905933 C17.5823965,7.70883657 17.5244278,7.81876289 17.4205673,7.84874878 L13.2264941,9.05912449 C13.1536978,9.08014756 13.0780836,9.03757418 13.0600355,8.96521262 C12.8880752,8.27586655 12.5385188,7.05988909 11.9561484,5.8003497 C11.1184878,3.98854262 10.0774001,2.71608622 8.89400741,2.03768007 C9.1760679,2.0061784 9.45799421,1.98990034 9.73871283,1.98990034 M22.8348674,10.5679093 C22.82165,10.4351805 22.7438888,10.3170163 22.6260057,10.2507178 C22.6035295,10.2379985 20.4726443,9.03777189 18.6897053,7.92592127 C18.5683334,7.85026455 18.4756104,7.73651586 18.430054,7.60253493 C16.8328294,2.90727102 11.9609121,0.180399871 7.39514171,1.49832938 C7.3861512,1.5008996 7.37729487,1.50386523 7.36823727,1.50650136 C7.3598506,1.5053151 7.35146393,1.50366753 7.34307726,1.50254717 C7.23009204,1.48778489 7.11495983,1.51862752 7.02552438,1.58868248 C7.0070737,1.60304935 6.98942815,1.61820705 6.97124585,1.63290344 C2.66150376,3.12547607 0.262312239,7.86812428 1.48314305,12.5245713 C1.51850125,12.6593431 1.51058423,12.8012324 1.46422272,12.932709 C1.22402849,13.6136195 0.639175652,15.2291013 0.0403673984,16.5621885 C-0.00606120793,16.6654586 -0.0149175317,16.7832933 0.0268145393,16.8885405 C0.0916267267,17.0519142 0.248826473,17.1524823 0.418035931,17.1524823 C0.427227722,17.1524823 0.436486606,17.1521528 0.445611303,17.1514937 C0.496937725,17.1483304 5.50237088,16.7669493 6.72400681,11.7937063 L12.6921626,10.0713956 C18.5043934,14.380797 22.6508303,10.9541671 22.6926295,10.9187113 C22.795081,10.8312579 22.8481519,10.7005062 22.8348674,10.5679093" id="Fill-18"></path>
                    </g>
                </g>
            </g>
        </g>
    </g>
</svg>