<?xml version="1.0" encoding="UTF-8"?>
<svg width="20px" height="31px" viewBox="0 0 20 31" version="1.1" xmlns="http://www.w3.org/2000/svg" xmlns:xlink="http://www.w3.org/1999/xlink">
    <!-- Generator: sketchtool 51.2 (57519) - http://www.bohemiancoding.com/sketch -->
    <title>CDA72197-1DB7-41C1-86B7-12FE6085A97A</title>
    <desc>Created with sketchtool.</desc>
    <defs></defs>
    <g id="PRICING" stroke="none" stroke-width="1" fill="none" fill-rule="evenodd">
        <g transform="translate(-1247.000000, -861.000000)" fill="#3D8FFF" id="MATRIX-SECTION">
            <g transform="translate(200.000000, 707.000000)">
                <g id="MATRIX" transform="translate(0.000000, 138.000000)">
                    <path d="M1058.77478,32.7961677 C1060.92528,31.1497289 1062.96243,30.8540856 1063.85981,31.6110847 C1064.01129,31.7387489 1064.15641,31.9282618 1064.25862,32.2194527 C1064.2552,32.3414501 1064.18292,33.6925693 1062.98241,34.3982438 C1061.75913,35.1171947 1059.78774,34.5686516 1058.77478,32.7961677 Z M1049.7413,32.2218003 C1049.84351,31.9306904 1049.98871,31.7411775 1050.14012,31.6135133 C1051.03749,30.8565142 1053.07464,31.1497289 1055.22523,32.7961677 C1054.21227,34.5686516 1052.24087,35.1171947 1051.01751,34.3982438 C1049.817,33.6925693 1049.74472,32.3438787 1049.7413,32.2218003 Z M1060.2106,20.729839 C1059.39131,20.4237526 1058.62592,20.3432845 1058.00883,20.3516227 C1057.33609,20.3606086 1056.66383,20.3606086 1055.99118,20.3516227 C1055.37401,20.3432845 1054.60861,20.4237526 1053.78941,20.729839 C1053.10394,20.9858959 1052.57298,21.3284115 1052.19414,21.6221929 C1051.14924,20.3241956 1049.6341,18.4422306 1047.6487,15.9762979 L1047.18477,16.3498235 C1047.14861,16.3049178 1047.0829,16.2978239 1047.03799,16.3339788 C1047.01273,16.3543236 1046.99835,16.3852602 1046.9991,16.4176928 L1047.44806,35.8988847 C1047.54837,37.1905029 1047.89671,39.5052155 1049.28262,41.9827262 C1050.50566,44.169127 1052.02116,45.5599136 1052.99178,46.3225795 C1052.32716,45.4283636 1051.37772,43.9125034 1050.83809,41.8205757 C1050.4411,40.2822103 1050.39565,38.9351387 1050.43927,37.9674167 L1055.58416,37.9674167 C1055.76493,38.1538203 1055.99758,38.3937414 1056.2821,38.6871801 L1056.28213,38.6871554 C1056.66657,39.0836394 1057.29964,39.0933997 1057.69612,38.7089556 C1057.7035,38.7018014 1057.71077,38.6945338 1057.71792,38.6871554 C1058.00244,38.393728 1058.23508,38.1538151 1058.41584,37.9674167 L1063.56073,37.9674167 C1063.60428,38.9351387 1063.55882,40.2822103 1063.16184,41.8205757 C1062.80208,43.2151941 1062.08418,44.7158621 1061.00815,46.3225795 C1062.66561,44.8869445 1063.902,43.4403267 1064.7173,41.9827262 C1066.10321,39.5052155 1066.45156,37.1905029 1066.55194,35.8988847 L1066.98299,17.1930868 C1066.9919,16.8066147 1066.68582,16.486097 1066.29935,16.4771903 C1066.08188,16.4721784 1065.87444,16.5685596 1065.73802,16.7379962 C1064.05109,18.8332035 1062.74037,20.4612691 1061.80586,21.6221929 C1061.42695,21.3284115 1060.89599,20.9858959 1060.2106,20.729839 Z" id="Fill-1"></path>
                </g>
            </g>
        </g>
    </g>
</svg>