<?xml version="1.0" encoding="UTF-8"?>
<svg width="26px" height="26px" viewBox="0 0 26 26" version="1.1" xmlns="http://www.w3.org/2000/svg" xmlns:xlink="http://www.w3.org/1999/xlink">
    <!-- Generator: sketchtool 51.2 (57519) - http://www.bohemiancoding.com/sketch -->
    <title>3C22AB4C-1FB8-4142-B72D-D8C655AEE50F</title>
    <desc>Created with sketchtool.</desc>
    <defs></defs>
    <g id="PRICING" stroke="none" stroke-width="1" fill="none" fill-rule="evenodd">
        <g transform="translate(-649.000000, -863.000000)" fill="#3D8FFF" id="MATRIX-SECTION">
            <g transform="translate(200.000000, 707.000000)">
                <g id="MATRIX" transform="translate(0.000000, 138.000000)">
                    <g id="Group" transform="translate(450.000000, 19.000000)">
                        <path d="M15.7564525,16.9019889 L16.9019889,15.7564525 C17.2591758,15.3992657 17.8382901,15.3992657 18.1954769,15.7564525 L24.662917,22.2238926 C25.0201038,22.5810794 25.0201038,23.1601938 24.662917,23.5173806 L23.5173806,24.662917 C23.1601938,25.0201038 22.5810794,25.0201038 22.2238926,24.662917 L15.7564525,18.1954769 C15.3992657,17.8382901 15.3992657,17.2591758 15.7564525,16.9019889 Z" id="Rectangle-21"></path>
                        <path d="M14.7168403,14.5514524 C15.0079287,14.260364 15.4798762,14.260364 15.7709646,14.5514524 L22.4777684,21.2582562 C22.7688568,21.5493446 22.7688568,22.0212921 22.4777684,22.3123805 C22.18668,22.6034689 21.7147325,22.6034689 21.4236441,22.3123805 L14.7168403,15.6055767 C14.4257519,15.3144883 14.4257519,14.8425408 14.7168403,14.5514524 Z" id="Rectangle-21"></path>
                        <path d="M9.15328855,16.7763116 C4.94321538,16.7763116 1.53026556,13.3633617 1.53026556,9.15328855 C1.53026556,4.94321538 4.94321538,1.53023263 9.15328855,1.53023263 C13.3633617,1.53023263 16.7763116,4.94321538 16.7763116,9.15328855 C16.7763116,13.3633617 13.3633617,16.7763116 9.15328855,16.7763116 M9.15328855,0.420398247 C4.33024116,0.420398247 0.420398247,4.33024116 0.420398247,9.15328855 C0.420398247,13.9763359 4.33024116,17.8861789 9.15328855,17.8861789 C13.9763359,17.8861789 17.8861789,13.9763359 17.8861789,9.15328855 C17.8861789,4.33024116 13.9763359,0.420398247 9.15328855,0.420398247" id="Fill-6" stroke="#3D8FFF" stroke-width="1.2"></path>
                        <path d="M5.03328413,6.15244213 C5.17938446,6.23701803 5.36235844,6.20146483 5.46926962,6.06708312 C6.27824916,5.05008401 7.49525396,4.40250409 8.8571391,4.40250409 C11.1565761,4.40250409 13.0448257,6.24725067 13.2495106,8.60211523 C13.2658933,8.79074038 13.4162263,8.93538083 13.5968848,8.93538083 C13.8015697,8.93538083 13.963256,8.75140214 13.944757,8.53766526 C13.7089996,5.80878727 11.5213787,3.6706093 8.8571391,3.6706093 C7.28090874,3.6706093 5.87164308,4.41913213 4.93451453,5.59544195 C4.79336886,5.77260758 4.83977837,6.04040517 5.03251229,6.15199837 L5.03328413,6.15244213 Z" id="Fill-8"></path>
                    </g>
                </g>
            </g>
        </g>
    </g>
</svg>