<svg xmlns="http://www.w3.org/2000/svg" xmlns:xlink="http://www.w3.org/1999/xlink" viewBox="0 0 32 32" version="1.1" width="500" height="500" style="fill: rgb(0, 0, 0);">
<g id="surface1">
<path fill="#4A4F62" style=" " d="M 1 10 L 1 19 L 4.03125 19 C 4.007813 19.167969 4 19.324219 4 19.5 C 4 21.421875 5.578125 23 7.5 23 C 9.421875 23 11 21.421875 11 19.5 C 11 17.578125 9.421875 16 7.5 16 C 7.347656 16 7.210938 16.011719 7.0625 16.03125 C 8.585938 15.304688 11.121094 14.332031 14 14.125 L 14 17.03125 L 15.03125 17 C 15.03125 17 17.582031 16.898438 20.6875 17.21875 C 21.035156 17.253906 21.394531 17.324219 21.75 17.375 C 21.285156 17.96875 21 18.695313 21 19.5 C 21 19.695313 21.03125 19.875 21.0625 20.0625 L 11.9375 20.0625 C 11.84375 20.796875 11.59375 21.480469 11.1875 22.0625 L 22.0625 22.0625 L 22.0625 22 C 22.695313 22.617188 23.554688 23 24.5 23 C 26.421875 23 28 21.421875 28 19.5 C 28 19.347656 27.988281 19.210938 27.96875 19.0625 C 28.335938 19.242188 28.6875 19.421875 29 19.625 L 29 20 L 28.9375 20 C 28.855469 20.730469 28.640625 21.417969 28.25 22 L 31 22 L 31 18.5 L 30.59375 18.1875 C 28.003906 16.273438 24.160156 15.585938 20.90625 15.25 C 18.214844 14.972656 16.714844 15.015625 16 15.03125 L 16 12 L 15 12 C 11.164063 12 7.851563 13.347656 6 14.28125 L 6 12.40625 C 6 11.082031 4.917969 10 3.59375 10 Z M 3 12 L 3.59375 12 C 3.835938 12 4 12.164063 4 12.40625 L 4 17 L 3 17 Z M 7.5 18 C 8.339844 18 9 18.660156 9 19.5 C 9 20.339844 8.339844 21 7.5 21 C 6.660156 21 6 20.339844 6 19.5 C 6 18.660156 6.660156 18 7.5 18 Z M 24.5 18 C 25.339844 18 26 18.660156 26 19.5 C 26 20.339844 25.339844 21 24.5 21 C 23.660156 21 23 20.339844 23 19.5 C 23 18.660156 23.660156 18 24.5 18 Z "/>
</g>
</svg>