<svg xmlns="http://www.w3.org/2000/svg" xmlns:xlink="http://www.w3.org/1999/xlink" viewBox="0 0 32 32" version="1.1" width="500" height="500" style="fill: rgb(0, 0, 0);">
<g id="surface1">
<path fill="#4A4F62" style=" " d="M 21.5 5 C 20.84375 5 20.296875 5.414063 20.09375 6 L 16 6 L 16 8 L 19.53125 8 C 20.652344 9.226563 21.464844 10.53125 22.09375 11.75 C 22.148438 12.375 22 13.039063 21.625 13.78125 C 21.175781 14.671875 20.460938 15.597656 19.6875 16.40625 C 18.226563 17.929688 16.800781 18.878906 16.625 19 L 14 19 C 13.570313 19 13.273438 18.894531 13.15625 18.8125 C 13.039063 18.730469 13 18.742188 13 18.46875 C 13 17.863281 13.332031 17.277344 13.8125 16.59375 C 14.292969 15.910156 15 15.167969 15 14 L 14.96875 14 C 14.980469 13.910156 15 13.8125 15 13.71875 C 15 12.519531 14.039063 11.511719 12.84375 11.4375 L 6.4375 11.09375 L 6.40625 11.09375 C 5.117188 11.03125 4 12.078125 4 13.375 L 4 13.71875 C 4 14.164063 4.152344 14.585938 4.375 14.9375 C 4.082031 15.222656 3.722656 15.535156 3.3125 15.90625 C 2.261719 16.863281 1 18.269531 1 20.40625 L 1 21.03125 L 1.59375 21.3125 C 1.59375 21.3125 1.964844 21.472656 2.25 21.59375 C 2.085938 22.027344 2 22.511719 2 23 C 2 25.199219 3.800781 27 6 27 C 7.914063 27 9.519531 25.644531 9.90625 23.84375 C 10.523438 23.929688 11.132813 24 11.71875 24 L 17.3125 24 C 18.476563 24 19.589844 23.566406 20.46875 22.8125 C 20.53125 22.789063 21.160156 22.640625 22.0625 22.40625 C 22.03125 22.601563 22 22.796875 22 23 C 22 25.199219 23.800781 27 26 27 C 28.199219 27 30 25.199219 30 23 C 30 22.425781 29.875 21.871094 29.65625 21.375 C 29.773438 21.375 29.882813 21.375 30 21.375 L 31 21.375 L 31 19.75 L 30.90625 19.53125 C 30.480469 18.695313 29.679688 17.9375 28.65625 17.25 C 27.847656 16.707031 26.886719 16.234375 25.84375 16.0625 C 25.636719 15.101563 25.121094 13.285156 24.03125 11.09375 C 24.015625 11.019531 24.019531 10.949219 24 10.875 L 23.9375 10.90625 C 23.449219 9.949219 22.886719 8.972656 22.15625 8 L 24 8 L 24 5 Z M 6.3125 13.09375 L 12.71875 13.4375 L 12.75 13.4375 C 12.898438 13.457031 13 13.566406 13 13.71875 C 13 13.890625 12.890625 14 12.71875 14 L 6.28125 14 C 6.109375 14 6 13.890625 6 13.71875 L 6 13.375 C 6 13.191406 6.132813 13.082031 6.3125 13.09375 Z M 23.375 14.75 C 23.695313 15.753906 23.832031 16.488281 23.875 16.71875 L 19.3125 21.1875 C 18.78125 21.710938 18.058594 22 17.3125 22 L 11.71875 22 C 11.011719 22 10.175781 21.890625 9.3125 21.71875 C 9.1875 21.695313 9.066406 21.683594 8.9375 21.65625 C 7.855469 21.421875 6.742188 21.082031 5.75 20.75 C 5.101563 20.535156 4.660156 20.371094 4.28125 20.21875 C 4.25 20.207031 4.21875 20.195313 4.1875 20.1875 C 4.128906 20.148438 4.066406 20.117188 4 20.09375 C 3.96875 20.082031 3.9375 20.105469 3.90625 20.09375 C 3.621094 19.972656 3.375 19.828125 3.1875 19.75 C 3.398438 18.800781 3.921875 18.074219 4.6875 17.375 C 5.160156 16.941406 5.671875 16.539063 6.125 16.03125 C 6.132813 16.019531 6.148438 16.011719 6.15625 16 C 6.199219 16.003906 6.238281 16 6.28125 16 L 11.8125 16 C 11.394531 16.65625 11 17.472656 11 18.46875 C 11 19.28125 11.402344 20.050781 12 20.46875 C 12.597656 20.886719 13.300781 21 14 21 L 17 21 C 17.199219 21.003906 17.394531 20.949219 17.5625 20.84375 C 17.5625 20.84375 19.402344 19.578125 21.125 17.78125 C 21.972656 16.898438 22.792969 15.886719 23.375 14.75 Z M 25.375 18.03125 C 26.089844 18.121094 26.859375 18.453125 27.53125 18.90625 C 27.863281 19.128906 27.9375 19.316406 28.1875 19.5625 C 28.132813 19.566406 28.085938 19.558594 28.03125 19.5625 C 27.882813 19.503906 27.722656 19.484375 27.5625 19.5 C 27.394531 19.511719 27.234375 19.566406 27.09375 19.65625 C 25.742188 19.78125 24.5625 19.9375 23.5 20.125 C 23.4375 20.140625 23.371094 20.160156 23.3125 20.1875 C 23.261719 20.195313 23.207031 20.210938 23.15625 20.21875 Z M 27.3125 21.5 C 27.734375 21.863281 28 22.390625 28 23 C 28 24.117188 27.117188 25 26 25 C 24.882813 25 24 24.117188 24 23 C 24 22.578125 24.125 22.195313 24.34375 21.875 C 25.222656 21.71875 26.230469 21.59375 27.3125 21.5 Z M 4.125 22.3125 C 4.464844 22.4375 4.707031 22.527344 5.09375 22.65625 C 5.972656 22.949219 6.941406 23.230469 7.9375 23.46875 C 7.726563 24.351563 6.953125 25 6 25 C 4.882813 25 4 24.117188 4 23 C 4 22.757813 4.046875 22.527344 4.125 22.3125 Z "/>
</g>
</svg>