<svg xmlns="http://www.w3.org/2000/svg" xmlns:xlink="http://www.w3.org/1999/xlink" viewBox="0 0 32 32" version="1.1" width="500" height="500" style="fill: rgb(0, 0, 0);">
<g id="surface1">
<path fill="#3D8FFF" style=" " d="M 10.25 7 C 8.496094 7 6.871094 7.933594 5.96875 9.4375 L 4.375 12.125 L 2.28125 12.65625 C 0.953125 12.988281 0 14.191406 0 15.5625 L 0 20 C 0 21.09375 0.90625 22 2 22 L 3.15625 22 C 3.601563 23.71875 5.148438 25 7 25 C 8.851563 25 10.398438 23.71875 10.84375 22 L 21.15625 22 C 21.601563 23.71875 23.148438 25 25 25 C 26.851563 25 28.398438 23.71875 28.84375 22 L 30 22 C 31.09375 22 32 21.09375 32 20 L 32 16.5625 C 32 15.191406 31.050781 13.988281 29.71875 13.65625 L 23.625 12.125 L 22.03125 9.4375 C 21.128906 7.933594 19.503906 7 17.75 7 Z M 10.25 9 L 13 9 L 13 12 L 6.75 12 L 7.6875 10.46875 C 8.230469 9.5625 9.195313 9 10.25 9 Z M 15 9 L 17.75 9 C 18.804688 9 19.769531 9.5625 20.3125 10.46875 L 21.25 12 L 15 12 Z M 5.125 14 L 22.875 14 L 29.25 15.59375 C 29.699219 15.707031 30 16.097656 30 16.5625 L 30 20 L 28.84375 20 C 28.398438 18.28125 26.851563 17 25 17 C 23.148438 17 21.601563 18.28125 21.15625 20 L 10.84375 20 C 10.398438 18.28125 8.851563 17 7 17 C 5.148438 17 3.601563 18.28125 3.15625 20 L 2 20 L 2 15.5625 C 2 15.097656 2.300781 14.707031 2.75 14.59375 Z M 7 19 C 8.117188 19 9 19.882813 9 21 C 9 22.117188 8.117188 23 7 23 C 5.882813 23 5 22.117188 5 21 C 5 19.882813 5.882813 19 7 19 Z M 25 19 C 26.117188 19 27 19.882813 27 21 C 27 22.117188 26.117188 23 25 23 C 23.882813 23 23 22.117188 23 21 C 23 19.882813 23.882813 19 25 19 Z "/>
</g>
</svg>